<?xml version="1.0" encoding="utf-8" standalone="no"?>
<!DOCTYPE svg PUBLIC "-//W3C//DTD SVG 1.1//EN"
  "http://www.w3.org/Graphics/SVG/1.1/DTD/svg11.dtd">
<!-- Created with matplotlib (https://matplotlib.org/) -->
<svg height="573.84pt" version="1.1" viewBox="0 0 1152 573.84" width="1152pt" xmlns="http://www.w3.org/2000/svg" xmlns:xlink="http://www.w3.org/1999/xlink">
 <defs>
  <style type="text/css">
*{stroke-linecap:butt;stroke-linejoin:round;}
  </style>
 </defs>
 <g id="figure_1">
  <g id="patch_1">
   <path d="M 0 573.84 
L 1152 573.84 
L 1152 0 
L 0 0 
z
" style="fill:#ffffff;"/>
  </g>
  <g id="axes_1">
   <g id="LineCollection_1">
    <path clip-path="url(#p543c9e5b56)" d="M 453.853469 469.553927 
L 453.853469 286.92 
" style="fill:none;stroke:#808080;stroke-dasharray:1,1.65;stroke-dashoffset:0;stroke-opacity:0.5;"/>
    <path clip-path="url(#p543c9e5b56)" d="M 437.142017 447.268751 
L 437.142017 264.634824 
" style="fill:none;stroke:#808080;stroke-dasharray:1,1.65;stroke-dashoffset:0;stroke-opacity:0.5;"/>
    <path clip-path="url(#p543c9e5b56)" d="M 389.897193 428.836884 
L 389.897193 246.202957 
" style="fill:none;stroke:#808080;stroke-dasharray:1,1.65;stroke-dashoffset:0;stroke-opacity:0.5;"/>
    <path clip-path="url(#p543c9e5b56)" d="M 320.288092 417.445364 
L 320.288092 234.811436 
" style="fill:none;stroke:#808080;stroke-dasharray:1,1.65;stroke-dashoffset:0;stroke-opacity:0.5;"/>
    <path clip-path="url(#p543c9e5b56)" d="M 240.350723 415.063888 
L 240.350723 232.42996 
" style="fill:none;stroke:#808080;stroke-dasharray:1,1.65;stroke-dashoffset:0;stroke-opacity:0.5;"/>
    <path clip-path="url(#p543c9e5b56)" d="M 163.906999 422.104236 
L 163.906999 239.470308 
" style="fill:none;stroke:#808080;stroke-dasharray:1,1.65;stroke-dashoffset:0;stroke-opacity:0.5;"/>
    <path clip-path="url(#p543c9e5b56)" d="M 104.174736 437.349069 
L 104.174736 254.715142 
" style="fill:none;stroke:#808080;stroke-dasharray:1,1.65;stroke-dashoffset:0;stroke-opacity:0.5;"/>
    <path clip-path="url(#p543c9e5b56)" d="M 71.4822 458.162411 
L 71.4822 275.528483 
" style="fill:none;stroke:#808080;stroke-dasharray:1,1.65;stroke-dashoffset:0;stroke-opacity:0.5;"/>
    <path clip-path="url(#p543c9e5b56)" d="M 71.482211 480.945452 
L 71.482211 298.311525 
" style="fill:none;stroke:#808080;stroke-dasharray:1,1.65;stroke-dashoffset:0;stroke-opacity:0.5;"/>
    <path clip-path="url(#p543c9e5b56)" d="M 104.174759 501.758795 
L 104.174759 319.124868 
" style="fill:none;stroke:#808080;stroke-dasharray:1,1.65;stroke-dashoffset:0;stroke-opacity:0.5;"/>
    <path clip-path="url(#p543c9e5b56)" d="M 163.907034 517.003623 
L 163.907034 334.369695 
" style="fill:none;stroke:#808080;stroke-dasharray:1,1.65;stroke-dashoffset:0;stroke-opacity:0.5;"/>
    <path clip-path="url(#p543c9e5b56)" d="M 240.350756 524.043967 
L 240.350756 341.41004 
" style="fill:none;stroke:#808080;stroke-dasharray:1,1.65;stroke-dashoffset:0;stroke-opacity:0.5;"/>
    <path clip-path="url(#p543c9e5b56)" d="M 320.288121 521.662488 
L 320.288121 339.028561 
" style="fill:none;stroke:#808080;stroke-dasharray:1,1.65;stroke-dashoffset:0;stroke-opacity:0.5;"/>
    <path clip-path="url(#p543c9e5b56)" d="M 389.897228 510.270964 
L 389.897228 327.637037 
" style="fill:none;stroke:#808080;stroke-dasharray:1,1.65;stroke-dashoffset:0;stroke-opacity:0.5;"/>
    <path clip-path="url(#p543c9e5b56)" d="M 437.142041 491.839096 
L 437.142041 309.205168 
" style="fill:none;stroke:#808080;stroke-dasharray:1,1.65;stroke-dashoffset:0;stroke-opacity:0.5;"/>
    <path clip-path="url(#p543c9e5b56)" d="M 453.853469 286.92 
L 453.853469 104.286072 
" style="fill:none;stroke:#808080;stroke-dasharray:1,1.65;stroke-dashoffset:0;stroke-opacity:0.5;"/>
    <path clip-path="url(#p543c9e5b56)" d="M 437.142017 264.634824 
L 437.142017 82.000896 
" style="fill:none;stroke:#808080;stroke-dasharray:1,1.65;stroke-dashoffset:0;stroke-opacity:0.5;"/>
    <path clip-path="url(#p543c9e5b56)" d="M 389.897193 246.202957 
L 389.897193 63.569029 
" style="fill:none;stroke:#808080;stroke-dasharray:1,1.65;stroke-dashoffset:0;stroke-opacity:0.5;"/>
    <path clip-path="url(#p543c9e5b56)" d="M 320.288092 234.811436 
L 320.288092 52.177509 
" style="fill:none;stroke:#808080;stroke-dasharray:1,1.65;stroke-dashoffset:0;stroke-opacity:0.5;"/>
    <path clip-path="url(#p543c9e5b56)" d="M 240.350723 232.42996 
L 240.350723 49.796033 
" style="fill:none;stroke:#808080;stroke-dasharray:1,1.65;stroke-dashoffset:0;stroke-opacity:0.5;"/>
    <path clip-path="url(#p543c9e5b56)" d="M 163.906999 239.470308 
L 163.906999 56.836381 
" style="fill:none;stroke:#808080;stroke-dasharray:1,1.65;stroke-dashoffset:0;stroke-opacity:0.5;"/>
    <path clip-path="url(#p543c9e5b56)" d="M 104.174736 254.715142 
L 104.174736 72.081214 
" style="fill:none;stroke:#808080;stroke-dasharray:1,1.65;stroke-dashoffset:0;stroke-opacity:0.5;"/>
    <path clip-path="url(#p543c9e5b56)" d="M 71.4822 275.528483 
L 71.4822 92.894556 
" style="fill:none;stroke:#808080;stroke-dasharray:1,1.65;stroke-dashoffset:0;stroke-opacity:0.5;"/>
    <path clip-path="url(#p543c9e5b56)" d="M 71.482211 298.311525 
L 71.482211 115.677597 
" style="fill:none;stroke:#808080;stroke-dasharray:1,1.65;stroke-dashoffset:0;stroke-opacity:0.5;"/>
    <path clip-path="url(#p543c9e5b56)" d="M 104.174759 319.124868 
L 104.174759 136.490941 
" style="fill:none;stroke:#808080;stroke-dasharray:1,1.65;stroke-dashoffset:0;stroke-opacity:0.5;"/>
    <path clip-path="url(#p543c9e5b56)" d="M 163.907034 334.369695 
L 163.907034 151.735768 
" style="fill:none;stroke:#808080;stroke-dasharray:1,1.65;stroke-dashoffset:0;stroke-opacity:0.5;"/>
    <path clip-path="url(#p543c9e5b56)" d="M 240.350756 341.41004 
L 240.350756 158.776112 
" style="fill:none;stroke:#808080;stroke-dasharray:1,1.65;stroke-dashoffset:0;stroke-opacity:0.5;"/>
    <path clip-path="url(#p543c9e5b56)" d="M 320.288121 339.028561 
L 320.288121 156.394633 
" style="fill:none;stroke:#808080;stroke-dasharray:1,1.65;stroke-dashoffset:0;stroke-opacity:0.5;"/>
    <path clip-path="url(#p543c9e5b56)" d="M 389.897228 327.637037 
L 389.897228 145.003109 
" style="fill:none;stroke:#808080;stroke-dasharray:1,1.65;stroke-dashoffset:0;stroke-opacity:0.5;"/>
    <path clip-path="url(#p543c9e5b56)" d="M 437.142041 309.205168 
L 437.142041 126.571241 
" style="fill:none;stroke:#808080;stroke-dasharray:1,1.65;stroke-dashoffset:0;stroke-opacity:0.5;"/>
   </g>
   <g id="patch_2">
    <path clip-path="url(#p543c9e5b56)" d="M 437.323074 447.220019 
Q 438.033668 449.860104 439.041536 452.276633 
L 443.483204 450.424136 
Q 443.248884 456.552983 445.606397 462.881733 
Q 439.439743 460.017055 434.253764 454.273481 
L 438.695432 452.420984 
Q 437.678008 449.981542 436.960961 447.317483 
L 437.323074 447.220019 
z
" style="fill:#003071;stroke:#003071;stroke-linecap:round;stroke-width:1.84615;"/>
   </g>
   <g id="patch_3">
    <path clip-path="url(#p543c9e5b56)" d="M 163.97142 421.92815 
Q 231.987811 446.811844 298.6238 425.430509 
L 297.15346 420.848123 
Q 303.685023 421.379938 310.469979 421.46057 
Q 305.476837 426.052009 300.208711 430.369963 
L 298.738372 425.787578 
Q 231.979836 447.208235 163.842579 422.280321 
L 163.97142 421.92815 
z
" style="fill:#003071;stroke:#003071;stroke-linecap:round;stroke-width:3.912231;"/>
   </g>
   <g id="patch_4">
    <path clip-path="url(#p543c9e5b56)" d="M 163.960376 421.924493 
Q 192.08001 430.274947 218.776286 423.203735 
L 217.544062 418.551662 
Q 223.860447 419.474429 230.690333 419.45388 
Q 225.725033 424.133741 220.104528 428.218307 
L 218.872304 423.566234 
Q 192.074218 430.664413 163.853623 422.283978 
L 163.960376 421.924493 
z
" style="fill:#003071;stroke:#003071;stroke-linecap:round;stroke-width:1.286617;"/>
   </g>
   <g id="patch_5">
    <path clip-path="url(#p543c9e5b56)" d="M 71.44746 480.761201 
Q 117.730197 472.031875 148.994759 439.717651 
L 145.536097 436.371337 
Q 151.49267 433.816227 157.445241 430.514487 
Q 155.365697 436.991773 152.722926 443.324717 
L 149.264265 439.978403 
Q 117.916826 472.378287 71.516963 481.129704 
L 71.44746 480.761201 
z
" style="fill:#003071;stroke:#003071;stroke-linecap:round;stroke-width:6.814272;"/>
   </g>
   <g id="patch_6">
    <path clip-path="url(#p543c9e5b56)" d="M 240.352356 523.856474 
Q 342.324732 524.726613 419.599899 462.297082 
L 416.575587 458.553595 
Q 422.898863 456.660338 429.28175 454.391244 
Q 426.197038 460.420989 422.85987 466.33227 
L 419.835559 462.588783 
Q 342.455882 525.102746 240.349156 524.23146 
L 240.352356 523.856474 
z
" style="fill:#003071;stroke:#003071;stroke-linecap:round;stroke-width:1.509779;"/>
   </g>
   <g id="patch_7">
    <path clip-path="url(#p543c9e5b56)" d="M 240.1697 524.092699 
Q 225.419899 469.292591 182.749527 435.432885 
L 179.758106 439.202707 
Q 176.603474 433.504117 172.812525 427.863716 
Q 179.434967 429.375768 185.974046 431.369311 
L 182.982625 435.139132 
Q 225.74987 469.075709 240.531813 523.995234 
L 240.1697 524.092699 
z
" style="fill:#003071;stroke:#003071;stroke-linecap:round;stroke-width:1.838563;"/>
   </g>
   <g id="patch_8">
    <path clip-path="url(#p543c9e5b56)" d="M 320.213332 521.834427 
Q 253.798916 492.945802 186.008265 510.32233 
L 187.203204 514.984119 
Q 180.714884 514.064418 173.946762 513.580016 
Q 179.20438 509.293965 184.720213 505.297285 
L 185.915152 509.959074 
Q 253.830474 492.550589 320.36291 521.490549 
L 320.213332 521.834427 
z
" style="fill:#003071;stroke:#003071;stroke-linecap:round;stroke-width:2.769311;"/>
   </g>
   <g id="patch_9">
    <path clip-path="url(#p543c9e5b56)" d="M 389.769081 510.407838 
Q 302.990254 429.162114 186.992129 422.81577 
L 186.729227 427.621083 
Q 180.749638 424.789433 174.512035 422.163843 
Q 180.848289 419.78888 187.275517 417.636016 
L 187.012615 422.44133 
Q 303.14696 428.795126 390.025375 510.13409 
L 389.769081 510.407838 
z
" style="fill:#003071;stroke:#003071;stroke-linecap:round;stroke-width:4.594066;"/>
   </g>
   <g id="patch_10">
    <path clip-path="url(#p543c9e5b56)" d="M 389.843851 510.450706 
Q 323.657753 490.795974 261.492649 514.777563 
L 263.224761 519.267546 
Q 256.680283 519.110375 249.900264 519.438848 
Q 254.610438 514.554261 259.625567 509.937711 
L 261.357679 514.427694 
Q 323.642006 490.400113 389.950604 510.091222 
L 389.843851 510.450706 
z
" style="fill:#003071;stroke:#003071;stroke-linecap:round;stroke-width:3.14336;"/>
   </g>
   <g id="patch_11">
    <path clip-path="url(#p543c9e5b56)" d="M 436.989806 491.948553 
Q 400.361588 441.005371 342.662819 423.162982 
L 341.24106 427.760672 
Q 336.215143 423.58704 330.662505 419.672022 
Q 337.386959 418.721094 344.195365 418.20703 
L 342.773606 422.80472 
Q 400.592596 440.684286 437.294275 491.729639 
L 436.989806 491.948553 
z
" style="fill:#003071;stroke:#003071;stroke-linecap:round;stroke-width:1.086668;"/>
   </g>
   <g id="patch_12">
    <path clip-path="url(#p543c9e5b56)" d="M 437.013893 491.97597 
Q 362.571706 422.280288 263.435391 415.885495 
L 263.125604 420.688014 
Q 257.190819 417.79897 250.957655 415.146099 
Q 257.310719 412.798362 263.769317 410.708754 
L 263.45953 415.511273 
Q 362.729921 421.914714 437.270188 491.702221 
L 437.013893 491.97597 
z
" style="fill:#003071;stroke:#003071;stroke-linecap:round;stroke-width:3.38866;"/>
   </g>
   <g id="patch_13">
    <path clip-path="url(#p543c9e5b56)" d="M 437.067252 492.011034 
Q 267.158409 418.1049 93.394501 473.633771 
L 94.859426 478.217891 
Q 88.223659 477.713561 81.475302 477.395081 
Q 86.593556 472.986064 91.815427 468.692447 
L 93.280351 473.276567 
Q 267.17863 417.704755 437.21683 491.667157 
L 437.067252 492.011034 
z
" style="fill:#003071;stroke:#003071;stroke-linecap:round;stroke-width:2.093818;"/>
   </g>
   <g id="patch_14">
    <path clip-path="url(#p543c9e5b56)" d="M 437.101435 492.022146 
Q 343.771268 471.318791 260.659232 513.043692 
L 262.818436 517.344621 
Q 256.246086 517.845498 249.528128 518.722684 
Q 253.811687 513.475508 258.331778 508.407625 
L 260.490982 512.708554 
Q 343.722241 470.9238 437.182646 491.656045 
L 437.101435 492.022146 
z
" style="fill:#003071;stroke:#003071;stroke-linecap:round;stroke-width:2.417068;"/>
   </g>
   <g id="patch_15">
    <path clip-path="url(#p543c9e5b56)" d="M 240.461247 232.278499 
Q 326.80523 295.284935 430.844583 288.950954 
L 430.552137 284.147348 
Q 436.806579 286.272139 443.31671 288.137309 
Q 437.303323 291.249282 431.159818 294.128868 
L 430.867371 289.325261 
Q 326.693249 295.667447 240.240199 232.581422 
L 240.461247 232.278499 
z
" style="fill:#003071;stroke:#003071;stroke-linecap:round;stroke-width:1.110872;"/>
   </g>
   <g id="patch_16">
    <path clip-path="url(#p543c9e5b56)" d="M 163.981788 239.29837 
Q 264.840501 283.169413 367.89668 253.227147 
L 366.553966 248.605753 
Q 373.125313 249.300797 379.884209 249.6946 
Q 374.70053 254.048048 369.344021 258.208648 
L 368.001307 253.587255 
Q 264.815095 283.567302 163.83221 239.642247 
L 163.981788 239.29837 
z
" style="fill:#003071;stroke:#003071;stroke-linecap:round;stroke-width:1.577135;"/>
   </g>
   <g id="patch_17">
    <path clip-path="url(#p543c9e5b56)" d="M 163.97142 239.294222 
Q 231.987811 264.177917 298.6238 242.796581 
L 297.15346 238.214196 
Q 303.685023 238.746011 310.469979 238.826642 
Q 305.476837 243.418082 300.208711 247.736036 
L 298.738372 243.15365 
Q 231.979836 264.574308 163.842579 239.646394 
L 163.97142 239.294222 
z
" style="fill:#003071;stroke:#003071;stroke-linecap:round;stroke-width:0.925075;"/>
   </g>
   <g id="patch_18">
    <path clip-path="url(#p543c9e5b56)" d="M 71.506633 298.125622 
Q 196.95747 314.606022 301.129435 247.717282 
L 298.529211 243.667715 
Q 305.040561 242.458584 311.63603 240.949443 
Q 307.879802 246.575894 303.932274 252.0824 
L 301.33205 248.032833 
Q 197.044645 314.995696 71.457789 298.497428 
L 71.506633 298.125622 
z
" style="fill:#003071;stroke:#003071;stroke-linecap:round;stroke-width:1.568741;"/>
   </g>
   <g id="patch_19">
    <path clip-path="url(#p543c9e5b56)" d="M 104.199181 318.938965 
Q 250.007832 338.093758 370.787241 259.18408 
L 368.155041 255.155225 
Q 374.669433 253.886006 381.255931 252.35597 
Q 377.522776 257.993141 373.624549 263.526873 
L 370.992348 259.498017 
Q 250.096679 338.483652 104.150337 319.310771 
L 104.199181 318.938965 
z
" style="fill:#003071;stroke:#003071;stroke-linecap:round;stroke-width:1.60105;"/>
   </g>
   <g id="patch_20">
    <path clip-path="url(#p543c9e5b56)" d="M 104.176359 318.937375 
Q 217.329837 319.902926 302.793942 249.898908 
L 299.744428 246.175922 
Q 306.064106 244.232144 312.436903 241.946748 
Q 309.373046 247.982835 306.08108 253.911996 
L 303.031566 250.189011 
Q 217.462417 320.279071 104.173159 319.312361 
L 104.176359 318.937375 
z
" style="fill:#003071;stroke:#003071;stroke-linecap:round;stroke-width:3.082371;"/>
   </g>
   <g id="patch_21">
    <path clip-path="url(#p543c9e5b56)" d="M 240.265448 341.577009 
Q 214.144021 328.23104 186.605279 330.307292 
L 186.967085 335.106172 
Q 180.925493 333.045256 174.206742 331.817997 
Q 179.943284 328.123758 186.21528 325.134473 
L 186.577086 329.933353 
Q 214.22085 327.849183 240.436064 341.24307 
L 240.265448 341.577009 
z
" style="fill:#003071;stroke:#003071;stroke-linecap:round;stroke-width:3.298608;"/>
   </g>
   <g id="patch_22">
    <path clip-path="url(#p543c9e5b56)" d="M 320.107065 339.077293 
Q 304.541081 281.244803 259.239325 245.713833 
L 256.26933 249.500557 
Q 253.07198 243.812103 249.266552 238.180905 
Q 255.893232 239.677421 262.440749 241.632038 
L 259.470753 245.418763 
Q 304.870745 281.026782 320.469177 338.979828 
L 320.107065 339.077293 
z
" style="fill:#003071;stroke:#003071;stroke-linecap:round;stroke-width:6.604437;"/>
   </g>
   <g id="patch_23">
    <path clip-path="url(#p543c9e5b56)" d="M 320.135886 339.138018 
Q 268.743671 267.660806 186.362358 244.863133 
L 185.078818 249.50131 
Q 179.879452 245.467109 174.292365 241.629709 
Q 180.988363 240.588861 187.745913 239.86354 
L 186.462374 244.501717 
Q 268.971016 267.334626 320.440356 338.919104 
L 320.135886 339.138018 
z
" style="fill:#003071;stroke:#003071;stroke-linecap:round;stroke-width:1.211293;"/>
   </g>
   <g id="patch_24">
    <path clip-path="url(#p543c9e5b56)" d="M 320.159974 339.165435 
Q 237.555325 261.827742 127.264157 255.460748 
L 126.986798 260.265249 
Q 121.020447 257.415815 114.783669 254.781772 
Q 121.125681 252.415245 127.563128 250.28187 
L 127.285769 255.086371 
Q 237.712497 261.461191 320.416268 338.891686 
L 320.159974 339.165435 
z
" style="fill:#003071;stroke:#003071;stroke-linecap:round;stroke-width:2.905518;"/>
   </g>
   <g id="patch_25">
    <path clip-path="url(#p543c9e5b56)" d="M 389.832807 327.813122 
Q 286.541294 290.024081 185.450374 326.048256 
L 187.065822 330.58152 
Q 180.464752 330.278907 173.694399 330.288164 
Q 178.609722 325.633849 183.709047 321.16175 
L 185.324495 325.695015 
Q 286.542968 289.625385 389.961649 327.460951 
L 389.832807 327.813122 
z
" style="fill:#003071;stroke:#003071;stroke-linecap:round;stroke-width:0.798976;"/>
   </g>
   <g id="patch_26">
    <path clip-path="url(#p543c9e5b56)" d="M 437.117619 309.391071 
Q 384.504007 302.479255 339.866232 326.808296 
L 342.169333 331.033918 
Q 335.701868 331.707789 329.030941 333.02664 
Q 332.987655 327.500483 337.383668 322.253405 
L 339.68677 326.479027 
Q 384.431772 302.091543 437.166462 309.019265 
L 437.117619 309.391071 
z
" style="fill:#003071;stroke:#003071;stroke-linecap:round;stroke-width:2.750738;"/>
   </g>
   <g id="patch_27">
    <path clip-path="url(#p543c9e5b56)" d="M 240.461247 49.644571 
Q 326.80523 112.651008 430.844583 106.317027 
L 430.552137 101.513421 
Q 436.806579 103.638212 443.31671 105.503381 
Q 437.303323 108.615354 431.159818 111.49494 
L 430.867371 106.691334 
Q 326.693249 113.033519 240.240199 49.947495 
L 240.461247 49.644571 
z
" style="fill:#003071;stroke:#003071;stroke-linecap:round;stroke-width:2.715116;"/>
   </g>
   <g id="patch_28">
    <path clip-path="url(#p543c9e5b56)" d="M 163.992308 56.669411 
Q 285.121462 118.556769 414.783322 87.781985 
L 413.671967 83.099567 
Q 420.222334 84.114917 426.940262 84.892223 
Q 421.525996 88.943192 415.981277 92.829268 
L 414.869922 88.146849 
Q 285.073762 118.953508 163.821691 57.00335 
L 163.992308 56.669411 
z
" style="fill:#003071;stroke:#003071;stroke-linecap:round;stroke-width:7.595866;"/>
   </g>
   <g id="patch_29">
    <path clip-path="url(#p543c9e5b56)" d="M 104.239157 71.905129 
Q 237.776474 120.759555 368.405829 72.047479 
L 366.72434 67.538294 
Q 373.355695 67.734184 380.118658 67.683677 
Q 375.240085 72.366665 370.218343 76.90803 
L 368.536854 72.398844 
Q 237.777715 121.159317 104.110315 72.2573 
L 104.239157 71.905129 
z
" style="fill:#003071;stroke:#003071;stroke-linecap:round;stroke-width:0.807953;"/>
   </g>
   <g id="patch_30">
    <path clip-path="url(#p543c9e5b56)" d="M 104.228112 71.901472 
Q 204.977597 101.820207 299.283356 61.790934 
L 297.403008 57.360985 
Q 304.005907 57.275239 310.765283 56.854123 
Q 306.139645 61.799227 301.310224 66.566074 
L 299.429876 62.136125 
Q 205.00005 102.21806 104.121359 72.260956 
L 104.228112 71.901472 
z
" style="fill:#003071;stroke:#003071;stroke-linecap:round;stroke-width:0.630345;"/>
   </g>
   <g id="patch_31">
    <path clip-path="url(#p543c9e5b56)" d="M 104.215342 71.898164 
Q 165.191725 85.424507 219.861891 60.430127 
L 217.860895 56.05335 
Q 224.387213 55.821303 231.13497 55.043643 
Q 226.754416 60.231215 222.01881 65.14795 
L 220.017813 60.771174 
Q 165.233281 85.817841 104.13413 72.264265 
L 104.215342 71.898164 
z
" style="fill:#003071;stroke:#003071;stroke-linecap:round;stroke-width:2.369632;"/>
   </g>
   <g id="patch_32">
    <path clip-path="url(#p543c9e5b56)" d="M 71.535576 92.714814 
Q 225.367475 138.396991 369.006766 73.421021 
L 367.023302 69.036271 
Q 373.661535 68.777787 380.40269 68.292452 
Q 375.841056 73.278702 371.144785 78.147439 
L 369.161322 73.762689 
Q 225.394696 138.796261 71.428823 93.074298 
L 71.535576 92.714814 
z
" style="fill:#003071;stroke:#003071;stroke-linecap:round;stroke-width:3.860116;"/>
   </g>
   <g id="patch_33">
    <path clip-path="url(#p543c9e5b56)" d="M 71.546632 115.501512 
Q 254.010792 182.25575 432.419309 112.910276 
L 430.675814 108.424701 
Q 437.333274 108.519543 444.087409 108.430613 
Q 439.245658 113.140006 434.29866 117.745377 
L 432.555165 113.259802 
Q 254.014798 182.656524 71.417791 115.853683 
L 71.546632 115.501512 
z
" style="fill:#003071;stroke:#003071;stroke-linecap:round;stroke-width:2.033495;"/>
   </g>
   <g id="patch_34">
    <path clip-path="url(#p543c9e5b56)" d="M 71.308122 115.607962 
Q 71.331644 115.549156 71.354922 115.490351 
L 66.88025 113.719062 
Q 71.367137 109.444432 73.742019 103.259837 
Q 76.560122 109.374766 76.17827 117.399662 
L 71.703598 115.628373 
Q 71.680073 115.687803 71.656301 115.747233 
L 71.308122 115.607962 
z
" style="fill:#003071;stroke:#003071;stroke-linecap:round;stroke-width:3.325418;"/>
   </g>
   <g id="patch_35">
    <path clip-path="url(#p543c9e5b56)" d="M 320.202813 156.561603 
Q 226.612674 108.744495 126.582032 130.875693 
L 127.62163 135.574564 
Q 121.114141 134.452864 114.391552 133.632313 
Q 119.842592 129.615254 125.461427 125.810676 
L 126.501025 130.509547 
Q 226.663266 108.349233 320.373429 156.227664 
L 320.202813 156.561603 
z
" style="fill:#003071;stroke:#003071;stroke-linecap:round;stroke-width:2.884428;"/>
   </g>
   <g id="patch_36">
    <path clip-path="url(#p543c9e5b56)" d="M 436.967951 126.501605 
Q 441.356028 115.531397 441.410869 104.563739 
L 436.598429 104.539676 
Q 439.157561 98.891742 440.273807 92.134228 
Q 444.101329 97.807162 446.598304 104.589678 
L 441.785865 104.565614 
Q 441.730667 115.604518 437.31613 126.640876 
L 436.967951 126.501605 
z
" style="fill:#003071;stroke:#003071;stroke-linecap:round;stroke-width:0.793523;"/>
   </g>
   <g id="patch_37">
    <path clip-path="url(#p543c9e5b56)" d="M 436.960984 126.619973 
Q 429.056708 97.253137 408.171497 77.624365 
L 404.875664 81.131165 
Q 402.311324 75.278216 398.702348 69.483232 
Q 405.292014 71.242005 411.724148 73.844309 
L 408.428315 77.351108 
Q 429.391138 97.052823 437.323097 126.522508 
L 436.960984 126.619973 
z
" style="fill:#003071;stroke:#003071;stroke-linecap:round;stroke-width:1.83508;"/>
   </g>
   <g id="patch_38">
    <path clip-path="url(#p543c9e5b56)" d="M 437.013893 126.708115 
Q 362.571706 57.012433 263.435391 50.61764 
L 263.125604 55.420159 
Q 257.190819 52.531115 250.957655 49.878244 
Q 257.310719 47.530507 263.769317 45.440899 
L 263.45953 50.243418 
Q 362.729921 56.646859 437.270188 126.434367 
L 437.013893 126.708115 
z
" style="fill:#003071;stroke:#003071;stroke-linecap:round;stroke-width:3.076848;"/>
   </g>
   <g id="patch_39">
    <path clip-path="url(#p543c9e5b56)" d="M 437.101435 126.754291 
Q 343.771268 106.050936 260.659232 147.775837 
L 262.818436 152.076766 
Q 256.246086 152.577643 249.528128 153.454829 
Q 253.811687 148.207653 258.331778 143.13977 
L 260.490982 147.440699 
Q 343.722241 105.655945 437.182646 126.388191 
L 437.101435 126.754291 
z
" style="fill:#003071;stroke:#003071;stroke-linecap:round;stroke-width:1.020764;"/>
   </g>
   <g id="PathCollection_1">
    <path clip-path="url(#p543c9e5b56)" d="M 453.853469 480.160529 
C 456.666373 480.160529 459.364446 479.04295 461.353469 477.053927 
C 463.342492 475.064904 464.460071 472.366831 464.460071 469.553927 
C 464.460071 466.741023 463.342492 464.04295 461.353469 462.053927 
C 459.364446 460.064904 456.666373 458.947325 453.853469 458.947325 
C 451.040565 458.947325 448.342492 460.064904 446.353469 462.053927 
C 444.364446 464.04295 443.246867 466.741023 443.246867 469.553927 
C 443.246867 472.366831 444.364446 475.064904 446.353469 477.053927 
C 448.342492 479.04295 451.040565 480.160529 453.853469 480.160529 
z
" style="fill:#7b01be;stroke:#7b01be;"/>
    <path clip-path="url(#p543c9e5b56)" d="M 437.142017 457.875353 
C 439.954921 457.875353 442.652994 456.757774 444.642017 454.768751 
C 446.631041 452.779728 447.748619 450.081655 447.748619 447.268751 
C 447.748619 444.455847 446.631041 441.757774 444.642017 439.768751 
C 442.652994 437.779728 439.954921 436.662149 437.142017 436.662149 
C 434.329114 436.662149 431.631041 437.779728 429.642017 439.768751 
C 427.652994 441.757774 426.535416 444.455847 426.535416 447.268751 
C 426.535416 450.081655 427.652994 452.779728 429.642017 454.768751 
C 431.631041 456.757774 434.329114 457.875353 437.142017 457.875353 
z
" style="fill:#c95526;stroke:#c95526;"/>
    <path clip-path="url(#p543c9e5b56)" d="M 389.897193 439.443486 
C 392.710097 439.443486 395.40817 438.325908 397.397193 436.336884 
C 399.386217 434.347861 400.503795 431.649788 400.503795 428.836884 
C 400.503795 426.023981 399.386217 423.325908 397.397193 421.336884 
C 395.40817 419.347861 392.710097 418.230283 389.897193 418.230283 
C 387.08429 418.230283 384.386217 419.347861 382.397193 421.336884 
C 380.40817 423.325908 379.290592 426.023981 379.290592 428.836884 
C 379.290592 431.649788 380.40817 434.347861 382.397193 436.336884 
C 384.386217 438.325908 387.08429 439.443486 389.897193 439.443486 
z
" style="fill:#0dbc21;stroke:#0dbc21;"/>
    <path clip-path="url(#p543c9e5b56)" d="M 320.288092 428.051965 
C 323.100996 428.051965 325.799069 426.934387 327.788092 424.945364 
C 329.777115 422.95634 330.894694 420.258267 330.894694 417.445364 
C 330.894694 414.63246 329.777115 411.934387 327.788092 409.945364 
C 325.799069 407.95634 323.100996 406.838762 320.288092 406.838762 
C 317.475188 406.838762 314.777115 407.95634 312.788092 409.945364 
C 310.799069 411.934387 309.68149 414.63246 309.68149 417.445364 
C 309.68149 420.258267 310.799069 422.95634 312.788092 424.945364 
C 314.777115 426.934387 317.475188 428.051965 320.288092 428.051965 
z
" style="fill:#3ba621;stroke:#3ba621;"/>
    <path clip-path="url(#p543c9e5b56)" d="M 240.350723 425.67049 
C 243.163627 425.67049 245.8617 424.552911 247.850723 422.563888 
C 249.839746 420.574865 250.957325 417.876792 250.957325 415.063888 
C 250.957325 412.250984 249.839746 409.552911 247.850723 407.563888 
C 245.8617 405.574865 243.163627 404.457286 240.350723 404.457286 
C 237.53782 404.457286 234.839746 405.574865 232.850723 407.563888 
C 230.8617 409.552911 229.744121 412.250984 229.744121 415.063888 
C 229.744121 417.876792 230.8617 420.574865 232.850723 422.563888 
C 234.839746 424.552911 237.53782 425.67049 240.350723 425.67049 
z
" style="fill:#4531e9;stroke:#4531e9;"/>
    <path clip-path="url(#p543c9e5b56)" d="M 163.906999 432.710837 
C 166.719903 432.710837 169.417976 431.593259 171.406999 429.604236 
C 173.396023 427.615212 174.513601 424.917139 174.513601 422.104236 
C 174.513601 419.291332 173.396023 416.593259 171.406999 414.604236 
C 169.417976 412.615212 166.719903 411.497634 163.906999 411.497634 
C 161.094096 411.497634 158.396023 412.615212 156.406999 414.604236 
C 154.417976 416.593259 153.300398 419.291332 153.300398 422.104236 
C 153.300398 424.917139 154.417976 427.615212 156.406999 429.604236 
C 158.396023 431.593259 161.094096 432.710837 163.906999 432.710837 
z
" style="fill:#b6dbb0;stroke:#b6dbb0;"/>
    <path clip-path="url(#p543c9e5b56)" d="M 104.174736 447.955671 
C 106.987639 447.955671 109.685713 446.838092 111.674736 444.849069 
C 113.663759 442.860046 114.781338 440.161973 114.781338 437.349069 
C 114.781338 434.536165 113.663759 431.838092 111.674736 429.849069 
C 109.685713 427.860046 106.987639 426.742467 104.174736 426.742467 
C 101.361832 426.742467 98.663759 427.860046 96.674736 429.849069 
C 94.685713 431.838092 93.568134 434.536165 93.568134 437.349069 
C 93.568134 440.161973 94.685713 442.860046 96.674736 444.849069 
C 98.663759 446.838092 101.361832 447.955671 104.174736 447.955671 
z
" style="fill:#803f1e;stroke:#803f1e;"/>
    <path clip-path="url(#p543c9e5b56)" d="M 71.4822 468.769012 
C 74.295103 468.769012 76.993177 467.651434 78.9822 465.662411 
C 80.971223 463.673387 82.088802 460.975314 82.088802 458.162411 
C 82.088802 455.349507 80.971223 452.651434 78.9822 450.662411 
C 76.993177 448.673387 74.295103 447.555809 71.4822 447.555809 
C 68.669296 447.555809 65.971223 448.673387 63.9822 450.662411 
C 61.993177 452.651434 60.875598 455.349507 60.875598 458.162411 
C 60.875598 460.975314 61.993177 463.673387 63.9822 465.662411 
C 65.971223 467.651434 68.669296 468.769012 71.4822 468.769012 
z
" style="fill:#10d76a;stroke:#10d76a;"/>
    <path clip-path="url(#p543c9e5b56)" d="M 71.482211 491.552054 
C 74.295115 491.552054 76.993188 490.434475 78.982211 488.445452 
C 80.971235 486.456429 82.088813 483.758356 82.088813 480.945452 
C 82.088813 478.132549 80.971235 475.434475 78.982211 473.445452 
C 76.993188 471.456429 74.295115 470.33885 71.482211 470.33885 
C 68.669308 470.33885 65.971235 471.456429 63.982211 473.445452 
C 61.993188 475.434475 60.87561 478.132549 60.87561 480.945452 
C 60.87561 483.758356 61.993188 486.456429 63.982211 488.445452 
C 65.971235 490.434475 68.669308 491.552054 71.482211 491.552054 
z
" style="fill:#6b18b7;stroke:#6b18b7;"/>
    <path clip-path="url(#p543c9e5b56)" d="M 104.174759 512.365397 
C 106.987663 512.365397 109.685736 511.247819 111.674759 509.258795 
C 113.663782 507.269772 114.781361 504.571699 114.781361 501.758795 
C 114.781361 498.945892 113.663782 496.247819 111.674759 494.258795 
C 109.685736 492.269772 106.987663 491.152194 104.174759 491.152194 
C 101.361855 491.152194 98.663782 492.269772 96.674759 494.258795 
C 94.685736 496.247819 93.568157 498.945892 93.568157 501.758795 
C 93.568157 504.571699 94.685736 507.269772 96.674759 509.258795 
C 98.663782 511.247819 101.361855 512.365397 104.174759 512.365397 
z
" style="fill:#1faa83;stroke:#1faa83;"/>
    <path clip-path="url(#p543c9e5b56)" d="M 163.907034 527.610224 
C 166.719938 527.610224 169.418011 526.492646 171.407034 524.503623 
C 173.396057 522.514599 174.513636 519.816526 174.513636 517.003623 
C 174.513636 514.190719 173.396057 511.492646 171.407034 509.503623 
C 169.418011 507.514599 166.719938 506.397021 163.907034 506.397021 
C 161.09413 506.397021 158.396057 507.514599 156.407034 509.503623 
C 154.418011 511.492646 153.300432 514.190719 153.300432 517.003623 
C 153.300432 519.816526 154.418011 522.514599 156.407034 524.503623 
C 158.396057 526.492646 161.09413 527.610224 163.907034 527.610224 
z
" style="fill:#5ad6c4;stroke:#5ad6c4;"/>
    <path clip-path="url(#p543c9e5b56)" d="M 240.350756 534.650569 
C 243.16366 534.650569 245.861733 533.53299 247.850756 531.543967 
C 249.83978 529.554944 250.957358 526.856871 250.957358 524.043967 
C 250.957358 521.231063 249.83978 518.53299 247.850756 516.543967 
C 245.861733 514.554944 243.16366 513.437365 240.350756 513.437365 
C 237.537853 513.437365 234.83978 514.554944 232.850756 516.543967 
C 230.861733 518.53299 229.744155 521.231063 229.744155 524.043967 
C 229.744155 526.856871 230.861733 529.554944 232.850756 531.543967 
C 234.83978 533.53299 237.537853 534.650569 240.350756 534.650569 
z
" style="fill:#6e8a14;stroke:#6e8a14;"/>
    <path clip-path="url(#p543c9e5b56)" d="M 320.288121 532.26909 
C 323.101024 532.26909 325.799098 531.151511 327.788121 529.162488 
C 329.777144 527.173465 330.894723 524.475392 330.894723 521.662488 
C 330.894723 518.849584 329.777144 516.151511 327.788121 514.162488 
C 325.799098 512.173465 323.101024 511.055886 320.288121 511.055886 
C 317.475217 511.055886 314.777144 512.173465 312.788121 514.162488 
C 310.799098 516.151511 309.681519 518.849584 309.681519 521.662488 
C 309.681519 524.475392 310.799098 527.173465 312.788121 529.162488 
C 314.777144 531.151511 317.475217 532.26909 320.288121 532.26909 
z
" style="fill:#327ac6;stroke:#327ac6;"/>
    <path clip-path="url(#p543c9e5b56)" d="M 389.897228 520.877566 
C 392.710131 520.877566 395.408205 519.759987 397.397228 517.770964 
C 399.386251 515.781941 400.50383 513.083868 400.50383 510.270964 
C 400.50383 507.45806 399.386251 504.759987 397.397228 502.770964 
C 395.408205 500.781941 392.710131 499.664362 389.897228 499.664362 
C 387.084324 499.664362 384.386251 500.781941 382.397228 502.770964 
C 380.408205 504.759987 379.290626 507.45806 379.290626 510.270964 
C 379.290626 513.083868 380.408205 515.781941 382.397228 517.770964 
C 384.386251 519.759987 387.084324 520.877566 389.897228 520.877566 
z
" style="fill:#cc5648;stroke:#cc5648;"/>
    <path clip-path="url(#p543c9e5b56)" d="M 437.142041 502.445697 
C 439.954944 502.445697 442.653017 501.328119 444.642041 499.339096 
C 446.631064 497.350072 447.748642 494.651999 447.748642 491.839096 
C 447.748642 489.026192 446.631064 486.328119 444.642041 484.339096 
C 442.653017 482.350072 439.954944 481.232494 437.142041 481.232494 
C 434.329137 481.232494 431.631064 482.350072 429.642041 484.339096 
C 427.653017 486.328119 426.535439 489.026192 426.535439 491.839096 
C 426.535439 494.651999 427.653017 497.350072 429.642041 499.339096 
C 431.631064 501.328119 434.329137 502.445697 437.142041 502.445697 
z
" style="fill:#9bdd8b;stroke:#9bdd8b;"/>
    <path clip-path="url(#p543c9e5b56)" d="M 453.853469 297.526601 
C 456.666373 297.526601 459.364446 296.409023 461.353469 294.42 
C 463.342492 292.430976 464.460071 289.732903 464.460071 286.92 
C 464.460071 284.107096 463.342492 281.409023 461.353469 279.42 
C 459.364446 277.430976 456.666373 276.313398 453.853469 276.313398 
C 451.040565 276.313398 448.342492 277.430976 446.353469 279.42 
C 444.364446 281.409023 443.246867 284.107096 443.246867 286.92 
C 443.246867 289.732903 444.364446 292.430976 446.353469 294.42 
C 448.342492 296.409023 451.040565 297.526601 453.853469 297.526601 
z
" style="fill:#7b01be;stroke:#7b01be;"/>
    <path clip-path="url(#p543c9e5b56)" d="M 437.142017 275.241425 
C 439.954921 275.241425 442.652994 274.123847 444.642017 272.134824 
C 446.631041 270.1458 447.748619 267.447727 447.748619 264.634824 
C 447.748619 261.82192 446.631041 259.123847 444.642017 257.134824 
C 442.652994 255.1458 439.954921 254.028222 437.142017 254.028222 
C 434.329114 254.028222 431.631041 255.1458 429.642017 257.134824 
C 427.652994 259.123847 426.535416 261.82192 426.535416 264.634824 
C 426.535416 267.447727 427.652994 270.1458 429.642017 272.134824 
C 431.631041 274.123847 434.329114 275.241425 437.142017 275.241425 
z
" style="fill:#c95526;stroke:#c95526;"/>
    <path clip-path="url(#p543c9e5b56)" d="M 389.897193 256.809559 
C 392.710097 256.809559 395.40817 255.69198 397.397193 253.702957 
C 399.386217 251.713934 400.503795 249.015861 400.503795 246.202957 
C 400.503795 243.390053 399.386217 240.69198 397.397193 238.702957 
C 395.40817 236.713934 392.710097 235.596355 389.897193 235.596355 
C 387.08429 235.596355 384.386217 236.713934 382.397193 238.702957 
C 380.40817 240.69198 379.290592 243.390053 379.290592 246.202957 
C 379.290592 249.015861 380.40817 251.713934 382.397193 253.702957 
C 384.386217 255.69198 387.08429 256.809559 389.897193 256.809559 
z
" style="fill:#0dbc21;stroke:#0dbc21;"/>
    <path clip-path="url(#p543c9e5b56)" d="M 320.288092 245.418038 
C 323.100996 245.418038 325.799069 244.300459 327.788092 242.311436 
C 329.777115 240.322413 330.894694 237.62434 330.894694 234.811436 
C 330.894694 231.998532 329.777115 229.300459 327.788092 227.311436 
C 325.799069 225.322413 323.100996 224.204834 320.288092 224.204834 
C 317.475188 224.204834 314.777115 225.322413 312.788092 227.311436 
C 310.799069 229.300459 309.68149 231.998532 309.68149 234.811436 
C 309.68149 237.62434 310.799069 240.322413 312.788092 242.311436 
C 314.777115 244.300459 317.475188 245.418038 320.288092 245.418038 
z
" style="fill:#3ba621;stroke:#3ba621;"/>
    <path clip-path="url(#p543c9e5b56)" d="M 240.350723 243.036562 
C 243.163627 243.036562 245.8617 241.918984 247.850723 239.92996 
C 249.839746 237.940937 250.957325 235.242864 250.957325 232.42996 
C 250.957325 229.617057 249.839746 226.918984 247.850723 224.92996 
C 245.8617 222.940937 243.163627 221.823359 240.350723 221.823359 
C 237.53782 221.823359 234.839746 222.940937 232.850723 224.92996 
C 230.8617 226.918984 229.744121 229.617057 229.744121 232.42996 
C 229.744121 235.242864 230.8617 237.940937 232.850723 239.92996 
C 234.839746 241.918984 237.53782 243.036562 240.350723 243.036562 
z
" style="fill:#4531e9;stroke:#4531e9;"/>
    <path clip-path="url(#p543c9e5b56)" d="M 163.906999 250.07691 
C 166.719903 250.07691 169.417976 248.959331 171.406999 246.970308 
C 173.396023 244.981285 174.513601 242.283212 174.513601 239.470308 
C 174.513601 236.657404 173.396023 233.959331 171.406999 231.970308 
C 169.417976 229.981285 166.719903 228.863706 163.906999 228.863706 
C 161.094096 228.863706 158.396023 229.981285 156.406999 231.970308 
C 154.417976 233.959331 153.300398 236.657404 153.300398 239.470308 
C 153.300398 242.283212 154.417976 244.981285 156.406999 246.970308 
C 158.396023 248.959331 161.094096 250.07691 163.906999 250.07691 
z
" style="fill:#b6dbb0;stroke:#b6dbb0;"/>
    <path clip-path="url(#p543c9e5b56)" d="M 104.174736 265.321743 
C 106.987639 265.321743 109.685713 264.204165 111.674736 262.215142 
C 113.663759 260.226118 114.781338 257.528045 114.781338 254.715142 
C 114.781338 251.902238 113.663759 249.204165 111.674736 247.215142 
C 109.685713 245.226118 106.987639 244.10854 104.174736 244.10854 
C 101.361832 244.10854 98.663759 245.226118 96.674736 247.215142 
C 94.685713 249.204165 93.568134 251.902238 93.568134 254.715142 
C 93.568134 257.528045 94.685713 260.226118 96.674736 262.215142 
C 98.663759 264.204165 101.361832 265.321743 104.174736 265.321743 
z
" style="fill:#803f1e;stroke:#803f1e;"/>
    <path clip-path="url(#p543c9e5b56)" d="M 71.4822 286.135085 
C 74.295103 286.135085 76.993177 285.017507 78.9822 283.028483 
C 80.971223 281.03946 82.088802 278.341387 82.088802 275.528483 
C 82.088802 272.71558 80.971223 270.017507 78.9822 268.028483 
C 76.993177 266.03946 74.295103 264.921882 71.4822 264.921882 
C 68.669296 264.921882 65.971223 266.03946 63.9822 268.028483 
C 61.993177 270.017507 60.875598 272.71558 60.875598 275.528483 
C 60.875598 278.341387 61.993177 281.03946 63.9822 283.028483 
C 65.971223 285.017507 68.669296 286.135085 71.4822 286.135085 
z
" style="fill:#10d76a;stroke:#10d76a;"/>
    <path clip-path="url(#p543c9e5b56)" d="M 71.482211 308.918127 
C 74.295115 308.918127 76.993188 307.800548 78.982211 305.811525 
C 80.971235 303.822502 82.088813 301.124428 82.088813 298.311525 
C 82.088813 295.498621 80.971235 292.800548 78.982211 290.811525 
C 76.993188 288.822502 74.295115 287.704923 71.482211 287.704923 
C 68.669308 287.704923 65.971235 288.822502 63.982211 290.811525 
C 61.993188 292.800548 60.87561 295.498621 60.87561 298.311525 
C 60.87561 301.124428 61.993188 303.822502 63.982211 305.811525 
C 65.971235 307.800548 68.669308 308.918127 71.482211 308.918127 
z
" style="fill:#6b18b7;stroke:#6b18b7;"/>
    <path clip-path="url(#p543c9e5b56)" d="M 104.174759 329.73147 
C 106.987663 329.73147 109.685736 328.613891 111.674759 326.624868 
C 113.663782 324.635845 114.781361 321.937772 114.781361 319.124868 
C 114.781361 316.311964 113.663782 313.613891 111.674759 311.624868 
C 109.685736 309.635845 106.987663 308.518266 104.174759 308.518266 
C 101.361855 308.518266 98.663782 309.635845 96.674759 311.624868 
C 94.685736 313.613891 93.568157 316.311964 93.568157 319.124868 
C 93.568157 321.937772 94.685736 324.635845 96.674759 326.624868 
C 98.663782 328.613891 101.361855 329.73147 104.174759 329.73147 
z
" style="fill:#1faa83;stroke:#1faa83;"/>
    <path clip-path="url(#p543c9e5b56)" d="M 163.907034 344.976297 
C 166.719938 344.976297 169.418011 343.858718 171.407034 341.869695 
C 173.396057 339.880672 174.513636 337.182599 174.513636 334.369695 
C 174.513636 331.556792 173.396057 328.858718 171.407034 326.869695 
C 169.418011 324.880672 166.719938 323.763093 163.907034 323.763093 
C 161.09413 323.763093 158.396057 324.880672 156.407034 326.869695 
C 154.418011 328.858718 153.300432 331.556792 153.300432 334.369695 
C 153.300432 337.182599 154.418011 339.880672 156.407034 341.869695 
C 158.396057 343.858718 161.09413 344.976297 163.907034 344.976297 
z
" style="fill:#5ad6c4;stroke:#5ad6c4;"/>
    <path clip-path="url(#p543c9e5b56)" d="M 240.350756 352.016641 
C 243.16366 352.016641 245.861733 350.899063 247.850756 348.91004 
C 249.83978 346.921016 250.957358 344.222943 250.957358 341.41004 
C 250.957358 338.597136 249.83978 335.899063 247.850756 333.91004 
C 245.861733 331.921016 243.16366 330.803438 240.350756 330.803438 
C 237.537853 330.803438 234.83978 331.921016 232.850756 333.91004 
C 230.861733 335.899063 229.744155 338.597136 229.744155 341.41004 
C 229.744155 344.222943 230.861733 346.921016 232.850756 348.91004 
C 234.83978 350.899063 237.537853 352.016641 240.350756 352.016641 
z
" style="fill:#6e8a14;stroke:#6e8a14;"/>
    <path clip-path="url(#p543c9e5b56)" d="M 320.288121 349.635162 
C 323.101024 349.635162 325.799098 348.517584 327.788121 346.528561 
C 329.777144 344.539537 330.894723 341.841464 330.894723 339.028561 
C 330.894723 336.215657 329.777144 333.517584 327.788121 331.528561 
C 325.799098 329.539537 323.101024 328.421959 320.288121 328.421959 
C 317.475217 328.421959 314.777144 329.539537 312.788121 331.528561 
C 310.799098 333.517584 309.681519 336.215657 309.681519 339.028561 
C 309.681519 341.841464 310.799098 344.539537 312.788121 346.528561 
C 314.777144 348.517584 317.475217 349.635162 320.288121 349.635162 
z
" style="fill:#327ac6;stroke:#327ac6;"/>
    <path clip-path="url(#p543c9e5b56)" d="M 389.897228 338.243638 
C 392.710131 338.243638 395.408205 337.12606 397.397228 335.137037 
C 399.386251 333.148013 400.50383 330.44994 400.50383 327.637037 
C 400.50383 324.824133 399.386251 322.12606 397.397228 320.137037 
C 395.408205 318.148013 392.710131 317.030435 389.897228 317.030435 
C 387.084324 317.030435 384.386251 318.148013 382.397228 320.137037 
C 380.408205 322.12606 379.290626 324.824133 379.290626 327.637037 
C 379.290626 330.44994 380.408205 333.148013 382.397228 335.137037 
C 384.386251 337.12606 387.084324 338.243638 389.897228 338.243638 
z
" style="fill:#cc5648;stroke:#cc5648;"/>
    <path clip-path="url(#p543c9e5b56)" d="M 437.142041 319.81177 
C 439.954944 319.81177 442.653017 318.694191 444.642041 316.705168 
C 446.631064 314.716145 447.748642 312.018072 447.748642 309.205168 
C 447.748642 306.392265 446.631064 303.694191 444.642041 301.705168 
C 442.653017 299.716145 439.954944 298.598566 437.142041 298.598566 
C 434.329137 298.598566 431.631064 299.716145 429.642041 301.705168 
C 427.653017 303.694191 426.535439 306.392265 426.535439 309.205168 
C 426.535439 312.018072 427.653017 314.716145 429.642041 316.705168 
C 431.631064 318.694191 434.329137 319.81177 437.142041 319.81177 
z
" style="fill:#9bdd8b;stroke:#9bdd8b;"/>
    <path clip-path="url(#p543c9e5b56)" d="M 453.853469 114.892674 
C 456.666373 114.892674 459.364446 113.775095 461.353469 111.786072 
C 463.342492 109.797049 464.460071 107.098976 464.460071 104.286072 
C 464.460071 101.473169 463.342492 98.775095 461.353469 96.786072 
C 459.364446 94.797049 456.666373 93.67947 453.853469 93.67947 
C 451.040565 93.67947 448.342492 94.797049 446.353469 96.786072 
C 444.364446 98.775095 443.246867 101.473169 443.246867 104.286072 
C 443.246867 107.098976 444.364446 109.797049 446.353469 111.786072 
C 448.342492 113.775095 451.040565 114.892674 453.853469 114.892674 
z
" style="fill:#7b01be;stroke:#7b01be;"/>
    <path clip-path="url(#p543c9e5b56)" d="M 437.142017 92.607498 
C 439.954921 92.607498 442.652994 91.489919 444.642017 89.500896 
C 446.631041 87.511873 447.748619 84.8138 447.748619 82.000896 
C 447.748619 79.187993 446.631041 76.489919 444.642017 74.500896 
C 442.652994 72.511873 439.954921 71.394295 437.142017 71.394295 
C 434.329114 71.394295 431.631041 72.511873 429.642017 74.500896 
C 427.652994 76.489919 426.535416 79.187993 426.535416 82.000896 
C 426.535416 84.8138 427.652994 87.511873 429.642017 89.500896 
C 431.631041 91.489919 434.329114 92.607498 437.142017 92.607498 
z
" style="fill:#c95526;stroke:#c95526;"/>
    <path clip-path="url(#p543c9e5b56)" d="M 389.897193 74.175631 
C 392.710097 74.175631 395.40817 73.058053 397.397193 71.069029 
C 399.386217 69.080006 400.503795 66.381933 400.503795 63.569029 
C 400.503795 60.756126 399.386217 58.058053 397.397193 56.069029 
C 395.40817 54.080006 392.710097 52.962428 389.897193 52.962428 
C 387.08429 52.962428 384.386217 54.080006 382.397193 56.069029 
C 380.40817 58.058053 379.290592 60.756126 379.290592 63.569029 
C 379.290592 66.381933 380.40817 69.080006 382.397193 71.069029 
C 384.386217 73.058053 387.08429 74.175631 389.897193 74.175631 
z
" style="fill:#0dbc21;stroke:#0dbc21;"/>
    <path clip-path="url(#p543c9e5b56)" d="M 320.288092 62.78411 
C 323.100996 62.78411 325.799069 61.666532 327.788092 59.677509 
C 329.777115 57.688485 330.894694 54.990412 330.894694 52.177509 
C 330.894694 49.364605 329.777115 46.666532 327.788092 44.677509 
C 325.799069 42.688485 323.100996 41.570907 320.288092 41.570907 
C 317.475188 41.570907 314.777115 42.688485 312.788092 44.677509 
C 310.799069 46.666532 309.68149 49.364605 309.68149 52.177509 
C 309.68149 54.990412 310.799069 57.688485 312.788092 59.677509 
C 314.777115 61.666532 317.475188 62.78411 320.288092 62.78411 
z
" style="fill:#3ba621;stroke:#3ba621;"/>
    <path clip-path="url(#p543c9e5b56)" d="M 240.350723 60.402635 
C 243.163627 60.402635 245.8617 59.285056 247.850723 57.296033 
C 249.839746 55.30701 250.957325 52.608937 250.957325 49.796033 
C 250.957325 46.983129 249.839746 44.285056 247.850723 42.296033 
C 245.8617 40.30701 243.163627 39.189431 240.350723 39.189431 
C 237.53782 39.189431 234.839746 40.30701 232.850723 42.296033 
C 230.8617 44.285056 229.744121 46.983129 229.744121 49.796033 
C 229.744121 52.608937 230.8617 55.30701 232.850723 57.296033 
C 234.839746 59.285056 237.53782 60.402635 240.350723 60.402635 
z
" style="fill:#4531e9;stroke:#4531e9;"/>
    <path clip-path="url(#p543c9e5b56)" d="M 163.906999 67.442982 
C 166.719903 67.442982 169.417976 66.325404 171.406999 64.336381 
C 173.396023 62.347357 174.513601 59.649284 174.513601 56.836381 
C 174.513601 54.023477 173.396023 51.325404 171.406999 49.336381 
C 169.417976 47.347357 166.719903 46.229779 163.906999 46.229779 
C 161.094096 46.229779 158.396023 47.347357 156.406999 49.336381 
C 154.417976 51.325404 153.300398 54.023477 153.300398 56.836381 
C 153.300398 59.649284 154.417976 62.347357 156.406999 64.336381 
C 158.396023 66.325404 161.094096 67.442982 163.906999 67.442982 
z
" style="fill:#b6dbb0;stroke:#b6dbb0;"/>
    <path clip-path="url(#p543c9e5b56)" d="M 104.174736 82.687816 
C 106.987639 82.687816 109.685713 81.570238 111.674736 79.581214 
C 113.663759 77.592191 114.781338 74.894118 114.781338 72.081214 
C 114.781338 69.268311 113.663759 66.570238 111.674736 64.581214 
C 109.685713 62.592191 106.987639 61.474613 104.174736 61.474613 
C 101.361832 61.474613 98.663759 62.592191 96.674736 64.581214 
C 94.685713 66.570238 93.568134 69.268311 93.568134 72.081214 
C 93.568134 74.894118 94.685713 77.592191 96.674736 79.581214 
C 98.663759 81.570238 101.361832 82.687816 104.174736 82.687816 
z
" style="fill:#803f1e;stroke:#803f1e;"/>
    <path clip-path="url(#p543c9e5b56)" d="M 71.4822 103.501158 
C 74.295103 103.501158 76.993177 102.383579 78.9822 100.394556 
C 80.971223 98.405533 82.088802 95.70746 82.088802 92.894556 
C 82.088802 90.081652 80.971223 87.383579 78.9822 85.394556 
C 76.993177 83.405533 74.295103 82.287954 71.4822 82.287954 
C 68.669296 82.287954 65.971223 83.405533 63.9822 85.394556 
C 61.993177 87.383579 60.875598 90.081652 60.875598 92.894556 
C 60.875598 95.70746 61.993177 98.405533 63.9822 100.394556 
C 65.971223 102.383579 68.669296 103.501158 71.4822 103.501158 
z
" style="fill:#10d76a;stroke:#10d76a;"/>
    <path clip-path="url(#p543c9e5b56)" d="M 71.482211 126.284199 
C 74.295115 126.284199 76.993188 125.166621 78.982211 123.177597 
C 80.971235 121.188574 82.088813 118.490501 82.088813 115.677597 
C 82.088813 112.864694 80.971235 110.166621 78.982211 108.177597 
C 76.993188 106.188574 74.295115 105.070996 71.482211 105.070996 
C 68.669308 105.070996 65.971235 106.188574 63.982211 108.177597 
C 61.993188 110.166621 60.87561 112.864694 60.87561 115.677597 
C 60.87561 118.490501 61.993188 121.188574 63.982211 123.177597 
C 65.971235 125.166621 68.669308 126.284199 71.482211 126.284199 
z
" style="fill:#6b18b7;stroke:#6b18b7;"/>
    <path clip-path="url(#p543c9e5b56)" d="M 104.174759 147.097542 
C 106.987663 147.097542 109.685736 145.979964 111.674759 143.990941 
C 113.663782 142.001917 114.781361 139.303844 114.781361 136.490941 
C 114.781361 133.678037 113.663782 130.979964 111.674759 128.990941 
C 109.685736 127.001917 106.987663 125.884339 104.174759 125.884339 
C 101.361855 125.884339 98.663782 127.001917 96.674759 128.990941 
C 94.685736 130.979964 93.568157 133.678037 93.568157 136.490941 
C 93.568157 139.303844 94.685736 142.001917 96.674759 143.990941 
C 98.663782 145.979964 101.361855 147.097542 104.174759 147.097542 
z
" style="fill:#1faa83;stroke:#1faa83;"/>
    <path clip-path="url(#p543c9e5b56)" d="M 163.907034 162.342369 
C 166.719938 162.342369 169.418011 161.224791 171.407034 159.235768 
C 173.396057 157.246745 174.513636 154.548671 174.513636 151.735768 
C 174.513636 148.922864 173.396057 146.224791 171.407034 144.235768 
C 169.418011 142.246745 166.719938 141.129166 163.907034 141.129166 
C 161.09413 141.129166 158.396057 142.246745 156.407034 144.235768 
C 154.418011 146.224791 153.300432 148.922864 153.300432 151.735768 
C 153.300432 154.548671 154.418011 157.246745 156.407034 159.235768 
C 158.396057 161.224791 161.09413 162.342369 163.907034 162.342369 
z
" style="fill:#5ad6c4;stroke:#5ad6c4;"/>
    <path clip-path="url(#p543c9e5b56)" d="M 240.350756 169.382714 
C 243.16366 169.382714 245.861733 168.265135 247.850756 166.276112 
C 249.83978 164.287089 250.957358 161.589016 250.957358 158.776112 
C 250.957358 155.963208 249.83978 153.265135 247.850756 151.276112 
C 245.861733 149.287089 243.16366 148.16951 240.350756 148.16951 
C 237.537853 148.16951 234.83978 149.287089 232.850756 151.276112 
C 230.861733 153.265135 229.744155 155.963208 229.744155 158.776112 
C 229.744155 161.589016 230.861733 164.287089 232.850756 166.276112 
C 234.83978 168.265135 237.537853 169.382714 240.350756 169.382714 
z
" style="fill:#6e8a14;stroke:#6e8a14;"/>
    <path clip-path="url(#p543c9e5b56)" d="M 320.288121 167.001235 
C 323.101024 167.001235 325.799098 165.883656 327.788121 163.894633 
C 329.777144 161.90561 330.894723 159.207537 330.894723 156.394633 
C 330.894723 153.58173 329.777144 150.883656 327.788121 148.894633 
C 325.799098 146.90561 323.101024 145.788031 320.288121 145.788031 
C 317.475217 145.788031 314.777144 146.90561 312.788121 148.894633 
C 310.799098 150.883656 309.681519 153.58173 309.681519 156.394633 
C 309.681519 159.207537 310.799098 161.90561 312.788121 163.894633 
C 314.777144 165.883656 317.475217 167.001235 320.288121 167.001235 
z
" style="fill:#327ac6;stroke:#327ac6;"/>
    <path clip-path="url(#p543c9e5b56)" d="M 389.897228 155.609711 
C 392.710131 155.609711 395.408205 154.492132 397.397228 152.503109 
C 399.386251 150.514086 400.50383 147.816013 400.50383 145.003109 
C 400.50383 142.190206 399.386251 139.492132 397.397228 137.503109 
C 395.408205 135.514086 392.710131 134.396507 389.897228 134.396507 
C 387.084324 134.396507 384.386251 135.514086 382.397228 137.503109 
C 380.408205 139.492132 379.290626 142.190206 379.290626 145.003109 
C 379.290626 147.816013 380.408205 150.514086 382.397228 152.503109 
C 384.386251 154.492132 387.084324 155.609711 389.897228 155.609711 
z
" style="fill:#cc5648;stroke:#cc5648;"/>
    <path clip-path="url(#p543c9e5b56)" d="M 437.142041 137.177843 
C 439.954944 137.177843 442.653017 136.060264 444.642041 134.071241 
C 446.631064 132.082218 447.748642 129.384144 447.748642 126.571241 
C 447.748642 123.758337 446.631064 121.060264 444.642041 119.071241 
C 442.653017 117.082218 439.954944 115.964639 437.142041 115.964639 
C 434.329137 115.964639 431.631064 117.082218 429.642041 119.071241 
C 427.653017 121.060264 426.535439 123.758337 426.535439 126.571241 
C 426.535439 129.384144 427.653017 132.082218 429.642041 134.071241 
C 431.631064 136.060264 434.329137 137.177843 437.142041 137.177843 
z
" style="fill:#9bdd8b;stroke:#9bdd8b;"/>
    <path clip-path="url(#p543c9e5b56)" d="M 1098.17888 140.478565 
C 1107.777241 140.478565 1116.98377 136.665095 1123.770837 129.878029 
C 1130.557903 123.090963 1134.371372 113.884433 1134.371372 104.286072 
C 1134.371372 94.687711 1130.557903 85.481182 1123.770837 78.694115 
C 1116.98377 71.907049 1107.777241 68.09358 1098.17888 68.09358 
C 1088.580518 68.09358 1079.373989 71.907049 1072.586923 78.694115 
C 1065.799856 85.481182 1061.986387 94.687711 1061.986387 104.286072 
C 1061.986387 113.884433 1065.799856 123.090963 1072.586923 129.878029 
C 1079.373989 136.665095 1088.580518 140.478565 1098.17888 140.478565 
z
" style="fill:#7b01be;stroke:#7b01be;"/>
    <path clip-path="url(#p543c9e5b56)" d="M 1081.467428 99.321404 
C 1086.060881 99.321404 1090.466816 97.496406 1093.714877 94.248345 
C 1096.962938 91.000284 1098.787936 86.594349 1098.787936 82.000896 
C 1098.787936 77.407444 1096.962938 73.001509 1093.714877 69.753448 
C 1090.466816 66.505386 1086.060881 64.680388 1081.467428 64.680388 
C 1076.873976 64.680388 1072.468041 66.505386 1069.21998 69.753448 
C 1065.971918 73.001509 1064.14692 77.407444 1064.14692 82.000896 
C 1064.14692 86.594349 1065.971918 91.000284 1069.21998 94.248345 
C 1072.468041 97.496406 1076.873976 99.321404 1081.467428 99.321404 
z
" style="fill:#c95526;stroke:#c95526;"/>
    <path clip-path="url(#p543c9e5b56)" d="M 1034.222604 80.889538 
C 1038.816057 80.889538 1043.221991 79.06454 1046.470053 75.816478 
C 1049.718114 72.568417 1051.543112 68.162482 1051.543112 63.569029 
C 1051.543112 58.975577 1049.718114 54.569642 1046.470053 51.321581 
C 1043.221991 48.073519 1038.816057 46.248521 1034.222604 46.248521 
C 1029.629152 46.248521 1025.223217 48.073519 1021.975155 51.321581 
C 1018.727094 54.569642 1016.902096 58.975577 1016.902096 63.569029 
C 1016.902096 68.162482 1018.727094 72.568417 1021.975155 75.816478 
C 1025.223217 79.06454 1029.629152 80.889538 1034.222604 80.889538 
z
" style="fill:#0dbc21;stroke:#0dbc21;"/>
    <path clip-path="url(#p543c9e5b56)" d="M 964.613503 91.631314 
C 975.076774 91.631314 985.112906 87.474212 992.511556 80.075562 
C 999.910206 72.676912 1004.067308 62.64078 1004.067308 52.177509 
C 1004.067308 41.714237 999.910206 31.678106 992.511556 24.279456 
C 985.112906 16.880806 975.076774 12.723704 964.613503 12.723704 
C 954.150232 12.723704 944.1141 16.880806 936.71545 24.279456 
C 929.3168 31.678106 925.159698 41.714237 925.159698 52.177509 
C 925.159698 62.64078 929.3168 72.676912 936.71545 80.075562 
C 944.1141 87.474212 954.150232 91.631314 964.613503 91.631314 
z
" style="fill:#3ba621;stroke:#3ba621;"/>
    <path clip-path="url(#p543c9e5b56)" d="M 884.676134 79.059105 
C 892.436791 79.059105 899.880637 75.975763 905.368251 70.48815 
C 910.855864 65.000536 913.939206 57.55669 913.939206 49.796033 
C 913.939206 42.035376 910.855864 34.59153 905.368251 29.103917 
C 899.880637 23.616303 892.436791 20.532961 884.676134 20.532961 
C 876.915477 20.532961 869.471631 23.616303 863.984018 29.103917 
C 858.496404 34.59153 855.413062 42.035376 855.413062 49.796033 
C 855.413062 57.55669 858.496404 65.000536 863.984018 70.48815 
C 869.471631 75.975763 876.915477 79.059105 884.676134 79.059105 
z
" style="fill:#4531e9;stroke:#4531e9;"/>
    <path clip-path="url(#p543c9e5b56)" d="M 808.23241 91.627572 
C 817.459142 91.627572 826.309213 87.961753 832.833498 81.437468 
C 839.357782 74.913183 843.023602 66.063112 843.023602 56.836381 
C 843.023602 47.609649 839.357782 38.759578 832.833498 32.235293 
C 826.309213 25.711009 817.459142 22.045189 808.23241 22.045189 
C 799.005679 22.045189 790.155608 25.711009 783.631323 32.235293 
C 777.107038 38.759578 773.441219 47.609649 773.441219 56.836381 
C 773.441219 66.063112 777.107038 74.913183 783.631323 81.437468 
C 790.155608 87.961753 799.005679 91.627572 808.23241 91.627572 
z
" style="fill:#b6dbb0;stroke:#b6dbb0;"/>
    <path clip-path="url(#p543c9e5b56)" d="M 748.500147 90.490425 
C 753.382326 90.490425 758.065202 88.550715 761.517424 85.098492 
C 764.969647 81.64627 766.909357 76.963394 766.909357 72.081214 
C 766.909357 67.199035 764.969647 62.516159 761.517424 59.063937 
C 758.065202 55.611714 753.382326 53.672003 748.500147 53.672003 
C 743.617967 53.672003 738.935091 55.611714 735.482869 59.063937 
C 732.030646 62.516159 730.090936 67.199035 730.090936 72.081214 
C 730.090936 76.963394 732.030646 81.64627 735.482869 85.098492 
C 738.935091 88.550715 743.617967 90.490425 748.500147 90.490425 
z
" style="fill:#803f1e;stroke:#803f1e;"/>
    <path clip-path="url(#p543c9e5b56)" d="M 715.807611 110.215064 
C 720.401063 110.215064 724.806998 108.390066 728.055059 105.142005 
C 731.303121 101.893943 733.128119 97.488008 733.128119 92.894556 
C 733.128119 88.301104 731.303121 83.895169 728.055059 80.647107 
C 724.806998 77.399046 720.401063 75.574048 715.807611 75.574048 
C 711.214158 75.574048 706.808223 77.399046 703.560162 80.647107 
C 700.312101 83.895169 698.487103 88.301104 698.487103 92.894556 
C 698.487103 97.488008 700.312101 101.893943 703.560162 105.142005 
C 706.808223 108.390066 711.214158 110.215064 715.807611 110.215064 
z
" style="fill:#10d76a;stroke:#10d76a;"/>
    <path clip-path="url(#p543c9e5b56)" d="M 715.807622 157.419488 
C 726.877701 157.419488 737.495868 153.021299 745.323596 145.193571 
C 753.151324 137.365843 757.549512 126.747676 757.549512 115.677597 
C 757.549512 104.607519 753.151324 93.989351 745.323596 86.161624 
C 737.495868 78.333896 726.877701 73.935707 715.807622 73.935707 
C 704.737543 73.935707 694.119376 78.333896 686.291649 86.161624 
C 678.463921 93.989351 674.065732 104.607519 674.065732 115.677597 
C 674.065732 126.747676 678.463921 137.365843 686.291649 145.193571 
C 694.119376 153.021299 704.737543 157.419488 715.807622 157.419488 
z
" style="fill:#6b18b7;stroke:#6b18b7;"/>
    <path clip-path="url(#p543c9e5b56)" d="M 748.50017 167.040413 
C 756.601984 167.040413 764.37306 163.821528 770.101909 158.09268 
C 775.830757 152.363831 779.049642 144.592755 779.049642 136.490941 
C 779.049642 128.389126 775.830757 120.61805 770.101909 114.889202 
C 764.37306 109.160354 756.601984 105.941469 748.50017 105.941469 
C 740.398355 105.941469 732.627279 109.160354 726.898431 114.889202 
C 721.169583 120.61805 717.950698 128.389126 717.950698 136.490941 
C 717.950698 144.592755 721.169583 152.363831 726.898431 158.09268 
C 732.627279 163.821528 740.398355 167.040413 748.50017 167.040413 
z
" style="fill:#1faa83;stroke:#1faa83;"/>
    <path clip-path="url(#p543c9e5b56)" d="M 808.232445 181.87137 
C 816.2245 181.87137 823.890297 178.696093 829.541534 173.044857 
C 835.19277 167.39362 838.368047 159.727823 838.368047 151.735768 
C 838.368047 143.743713 835.19277 136.077915 829.541534 130.426679 
C 823.890297 124.775442 816.2245 121.600165 808.232445 121.600165 
C 800.24039 121.600165 792.574592 124.775442 786.923356 130.426679 
C 781.27212 136.077915 778.096842 143.743713 778.096842 151.735768 
C 778.096842 159.727823 781.27212 167.39362 786.923356 173.044857 
C 792.574592 178.696093 800.24039 181.87137 808.232445 181.87137 
z
" style="fill:#5ad6c4;stroke:#5ad6c4;"/>
    <path clip-path="url(#p543c9e5b56)" d="M 884.676167 176.09662 
C 889.26962 176.09662 893.675554 174.271622 896.923616 171.023561 
C 900.171677 167.775499 901.996675 163.369565 901.996675 158.776112 
C 901.996675 154.18266 900.171677 149.776725 896.923616 146.528663 
C 893.675554 143.280602 889.26962 141.455604 884.676167 141.455604 
C 880.082715 141.455604 875.67678 143.280602 872.428718 146.528663 
C 869.180657 149.776725 867.355659 154.18266 867.355659 158.776112 
C 867.355659 163.369565 869.180657 167.775499 872.428718 171.023561 
C 875.67678 174.271622 880.082715 176.09662 884.676167 176.09662 
z
" style="fill:#6e8a14;stroke:#6e8a14;"/>
    <path clip-path="url(#p543c9e5b56)" d="M 964.613532 174.372395 
C 969.38129 174.372395 973.954415 172.478144 977.325729 169.10683 
C 980.697043 165.735516 982.591293 161.162391 982.591293 156.394633 
C 982.591293 151.626875 980.697043 147.05375 977.325729 143.682436 
C 973.954415 140.311122 969.38129 138.416872 964.613532 138.416872 
C 959.845774 138.416872 955.272649 140.311122 951.901335 143.682436 
C 948.530021 147.05375 946.63577 151.626875 946.63577 156.394633 
C 946.63577 161.162391 948.530021 165.735516 951.901335 169.10683 
C 955.272649 172.478144 959.845774 174.372395 964.613532 174.372395 
z
" style="fill:#327ac6;stroke:#327ac6;"/>
    <path clip-path="url(#p543c9e5b56)" d="M 1034.222639 170.008247 
C 1040.854079 170.008247 1047.214805 167.373548 1051.903941 162.684412 
C 1056.593077 157.995275 1059.227776 151.634549 1059.227776 145.003109 
C 1059.227776 138.371669 1056.593077 132.010943 1051.903941 127.321807 
C 1047.214805 122.632671 1040.854079 119.997971 1034.222639 119.997971 
C 1027.591199 119.997971 1021.230472 122.632671 1016.541336 127.321807 
C 1011.8522 132.010943 1009.217501 138.371669 1009.217501 145.003109 
C 1009.217501 151.634549 1011.8522 157.995275 1016.541336 162.684412 
C 1021.230472 167.373548 1027.591199 170.008247 1034.222639 170.008247 
z
" style="fill:#cc5648;stroke:#cc5648;"/>
    <path clip-path="url(#p543c9e5b56)" d="M 1081.467451 162.706692 
C 1091.050685 162.706692 1100.242704 158.899233 1107.019074 152.122863 
C 1113.795443 145.346494 1117.602902 136.154474 1117.602902 126.571241 
C 1117.602902 116.988007 1113.795443 107.795988 1107.019074 101.019618 
C 1100.242704 94.243249 1091.050685 90.43579 1081.467451 90.43579 
C 1071.884218 90.43579 1062.692198 94.243249 1055.915829 101.019618 
C 1049.139459 107.795988 1045.332 116.988007 1045.332 126.571241 
C 1045.332 136.154474 1049.139459 145.346494 1055.915829 152.122863 
C 1062.692198 158.899233 1071.884218 162.706692 1081.467451 162.706692 
z
" style="fill:#9bdd8b;stroke:#9bdd8b;"/>
   </g>
   <g id="text_1">
    <g clip-path="url(#p543c9e5b56)">
     <!--   -->
     <defs>
      <path id="DejaVuSans-32"/>
     </defs>
     <g style="fill:#ffffff;" transform="translate(452.582219 471.761427)scale(0.08 -0.08)">
      <use xlink:href="#DejaVuSans-32"/>
     </g>
    </g>
   </g>
   <g id="text_2">
    <g clip-path="url(#p543c9e5b56)">
     <!--   -->
     <g style="fill:#ffffff;" transform="translate(435.870767 449.476251)scale(0.08 -0.08)">
      <use xlink:href="#DejaVuSans-32"/>
     </g>
    </g>
   </g>
   <g id="text_3">
    <g clip-path="url(#p543c9e5b56)">
     <!--   -->
     <g style="fill:#ffffff;" transform="translate(388.625943 431.044384)scale(0.08 -0.08)">
      <use xlink:href="#DejaVuSans-32"/>
     </g>
    </g>
   </g>
   <g id="text_4">
    <g clip-path="url(#p543c9e5b56)">
     <!--   -->
     <g style="fill:#ffffff;" transform="translate(319.016842 419.652864)scale(0.08 -0.08)">
      <use xlink:href="#DejaVuSans-32"/>
     </g>
    </g>
   </g>
   <g id="text_5">
    <g clip-path="url(#p543c9e5b56)">
     <!--   -->
     <g style="fill:#ffffff;" transform="translate(239.079473 417.271388)scale(0.08 -0.08)">
      <use xlink:href="#DejaVuSans-32"/>
     </g>
    </g>
   </g>
   <g id="text_6">
    <g clip-path="url(#p543c9e5b56)">
     <!--   -->
     <g style="fill:#ffffff;" transform="translate(162.635749 424.311736)scale(0.08 -0.08)">
      <use xlink:href="#DejaVuSans-32"/>
     </g>
    </g>
   </g>
   <g id="text_7">
    <g clip-path="url(#p543c9e5b56)">
     <!--   -->
     <g style="fill:#ffffff;" transform="translate(102.903486 439.556569)scale(0.08 -0.08)">
      <use xlink:href="#DejaVuSans-32"/>
     </g>
    </g>
   </g>
   <g id="text_8">
    <g clip-path="url(#p543c9e5b56)">
     <!--   -->
     <g style="fill:#ffffff;" transform="translate(70.21095 460.369911)scale(0.08 -0.08)">
      <use xlink:href="#DejaVuSans-32"/>
     </g>
    </g>
   </g>
   <g id="text_9">
    <g clip-path="url(#p543c9e5b56)">
     <!--   -->
     <g style="fill:#ffffff;" transform="translate(70.210961 483.152952)scale(0.08 -0.08)">
      <use xlink:href="#DejaVuSans-32"/>
     </g>
    </g>
   </g>
   <g id="text_10">
    <g clip-path="url(#p543c9e5b56)">
     <!--   -->
     <g style="fill:#ffffff;" transform="translate(102.903509 503.966295)scale(0.08 -0.08)">
      <use xlink:href="#DejaVuSans-32"/>
     </g>
    </g>
   </g>
   <g id="text_11">
    <g clip-path="url(#p543c9e5b56)">
     <!--   -->
     <g style="fill:#ffffff;" transform="translate(162.635784 519.211123)scale(0.08 -0.08)">
      <use xlink:href="#DejaVuSans-32"/>
     </g>
    </g>
   </g>
   <g id="text_12">
    <g clip-path="url(#p543c9e5b56)">
     <!--   -->
     <g style="fill:#ffffff;" transform="translate(239.079506 526.251467)scale(0.08 -0.08)">
      <use xlink:href="#DejaVuSans-32"/>
     </g>
    </g>
   </g>
   <g id="text_13">
    <g clip-path="url(#p543c9e5b56)">
     <!--   -->
     <g style="fill:#ffffff;" transform="translate(319.016871 523.869988)scale(0.08 -0.08)">
      <use xlink:href="#DejaVuSans-32"/>
     </g>
    </g>
   </g>
   <g id="text_14">
    <g clip-path="url(#p543c9e5b56)">
     <!--   -->
     <g style="fill:#ffffff;" transform="translate(388.625978 512.478464)scale(0.08 -0.08)">
      <use xlink:href="#DejaVuSans-32"/>
     </g>
    </g>
   </g>
   <g id="text_15">
    <g clip-path="url(#p543c9e5b56)">
     <!--   -->
     <g style="fill:#ffffff;" transform="translate(435.870791 494.046596)scale(0.08 -0.08)">
      <use xlink:href="#DejaVuSans-32"/>
     </g>
    </g>
   </g>
   <g id="text_16">
    <g clip-path="url(#p543c9e5b56)">
     <!--   -->
     <g style="fill:#ffffff;" transform="translate(452.582219 289.1275)scale(0.08 -0.08)">
      <use xlink:href="#DejaVuSans-32"/>
     </g>
    </g>
   </g>
   <g id="text_17">
    <g clip-path="url(#p543c9e5b56)">
     <!--   -->
     <g style="fill:#ffffff;" transform="translate(435.870767 266.842324)scale(0.08 -0.08)">
      <use xlink:href="#DejaVuSans-32"/>
     </g>
    </g>
   </g>
   <g id="text_18">
    <g clip-path="url(#p543c9e5b56)">
     <!--   -->
     <g style="fill:#ffffff;" transform="translate(388.625943 248.410457)scale(0.08 -0.08)">
      <use xlink:href="#DejaVuSans-32"/>
     </g>
    </g>
   </g>
   <g id="text_19">
    <g clip-path="url(#p543c9e5b56)">
     <!--   -->
     <g style="fill:#ffffff;" transform="translate(319.016842 237.018936)scale(0.08 -0.08)">
      <use xlink:href="#DejaVuSans-32"/>
     </g>
    </g>
   </g>
   <g id="text_20">
    <g clip-path="url(#p543c9e5b56)">
     <!--   -->
     <g style="fill:#ffffff;" transform="translate(239.079473 234.63746)scale(0.08 -0.08)">
      <use xlink:href="#DejaVuSans-32"/>
     </g>
    </g>
   </g>
   <g id="text_21">
    <g clip-path="url(#p543c9e5b56)">
     <!--   -->
     <g style="fill:#ffffff;" transform="translate(162.635749 241.677808)scale(0.08 -0.08)">
      <use xlink:href="#DejaVuSans-32"/>
     </g>
    </g>
   </g>
   <g id="text_22">
    <g clip-path="url(#p543c9e5b56)">
     <!--   -->
     <g style="fill:#ffffff;" transform="translate(102.903486 256.922642)scale(0.08 -0.08)">
      <use xlink:href="#DejaVuSans-32"/>
     </g>
    </g>
   </g>
   <g id="text_23">
    <g clip-path="url(#p543c9e5b56)">
     <!--   -->
     <g style="fill:#ffffff;" transform="translate(70.21095 277.735983)scale(0.08 -0.08)">
      <use xlink:href="#DejaVuSans-32"/>
     </g>
    </g>
   </g>
   <g id="text_24">
    <g clip-path="url(#p543c9e5b56)">
     <!--   -->
     <g style="fill:#ffffff;" transform="translate(70.210961 300.519025)scale(0.08 -0.08)">
      <use xlink:href="#DejaVuSans-32"/>
     </g>
    </g>
   </g>
   <g id="text_25">
    <g clip-path="url(#p543c9e5b56)">
     <!--   -->
     <g style="fill:#ffffff;" transform="translate(102.903509 321.332368)scale(0.08 -0.08)">
      <use xlink:href="#DejaVuSans-32"/>
     </g>
    </g>
   </g>
   <g id="text_26">
    <g clip-path="url(#p543c9e5b56)">
     <!--   -->
     <g style="fill:#ffffff;" transform="translate(162.635784 336.577195)scale(0.08 -0.08)">
      <use xlink:href="#DejaVuSans-32"/>
     </g>
    </g>
   </g>
   <g id="text_27">
    <g clip-path="url(#p543c9e5b56)">
     <!--   -->
     <g style="fill:#ffffff;" transform="translate(239.079506 343.61754)scale(0.08 -0.08)">
      <use xlink:href="#DejaVuSans-32"/>
     </g>
    </g>
   </g>
   <g id="text_28">
    <g clip-path="url(#p543c9e5b56)">
     <!--   -->
     <g style="fill:#ffffff;" transform="translate(319.016871 341.236061)scale(0.08 -0.08)">
      <use xlink:href="#DejaVuSans-32"/>
     </g>
    </g>
   </g>
   <g id="text_29">
    <g clip-path="url(#p543c9e5b56)">
     <!--   -->
     <g style="fill:#ffffff;" transform="translate(388.625978 329.844537)scale(0.08 -0.08)">
      <use xlink:href="#DejaVuSans-32"/>
     </g>
    </g>
   </g>
   <g id="text_30">
    <g clip-path="url(#p543c9e5b56)">
     <!--   -->
     <g style="fill:#ffffff;" transform="translate(435.870791 311.412668)scale(0.08 -0.08)">
      <use xlink:href="#DejaVuSans-32"/>
     </g>
    </g>
   </g>
   <g id="text_31">
    <g clip-path="url(#p543c9e5b56)">
     <!--   -->
     <g style="fill:#ffffff;" transform="translate(452.582219 106.493572)scale(0.08 -0.08)">
      <use xlink:href="#DejaVuSans-32"/>
     </g>
    </g>
   </g>
   <g id="text_32">
    <g clip-path="url(#p543c9e5b56)">
     <!--   -->
     <g style="fill:#ffffff;" transform="translate(435.870767 84.208396)scale(0.08 -0.08)">
      <use xlink:href="#DejaVuSans-32"/>
     </g>
    </g>
   </g>
   <g id="text_33">
    <g clip-path="url(#p543c9e5b56)">
     <!--   -->
     <g style="fill:#ffffff;" transform="translate(388.625943 65.776529)scale(0.08 -0.08)">
      <use xlink:href="#DejaVuSans-32"/>
     </g>
    </g>
   </g>
   <g id="text_34">
    <g clip-path="url(#p543c9e5b56)">
     <!--   -->
     <g style="fill:#ffffff;" transform="translate(319.016842 54.385009)scale(0.08 -0.08)">
      <use xlink:href="#DejaVuSans-32"/>
     </g>
    </g>
   </g>
   <g id="text_35">
    <g clip-path="url(#p543c9e5b56)">
     <!--   -->
     <g style="fill:#ffffff;" transform="translate(239.079473 52.003533)scale(0.08 -0.08)">
      <use xlink:href="#DejaVuSans-32"/>
     </g>
    </g>
   </g>
   <g id="text_36">
    <g clip-path="url(#p543c9e5b56)">
     <!--   -->
     <g style="fill:#ffffff;" transform="translate(162.635749 59.043881)scale(0.08 -0.08)">
      <use xlink:href="#DejaVuSans-32"/>
     </g>
    </g>
   </g>
   <g id="text_37">
    <g clip-path="url(#p543c9e5b56)">
     <!--   -->
     <g style="fill:#ffffff;" transform="translate(102.903486 74.288714)scale(0.08 -0.08)">
      <use xlink:href="#DejaVuSans-32"/>
     </g>
    </g>
   </g>
   <g id="text_38">
    <g clip-path="url(#p543c9e5b56)">
     <!--   -->
     <g style="fill:#ffffff;" transform="translate(70.21095 95.102056)scale(0.08 -0.08)">
      <use xlink:href="#DejaVuSans-32"/>
     </g>
    </g>
   </g>
   <g id="text_39">
    <g clip-path="url(#p543c9e5b56)">
     <!--   -->
     <g style="fill:#ffffff;" transform="translate(70.210961 117.885097)scale(0.08 -0.08)">
      <use xlink:href="#DejaVuSans-32"/>
     </g>
    </g>
   </g>
   <g id="text_40">
    <g clip-path="url(#p543c9e5b56)">
     <!--   -->
     <g style="fill:#ffffff;" transform="translate(102.903509 138.698441)scale(0.08 -0.08)">
      <use xlink:href="#DejaVuSans-32"/>
     </g>
    </g>
   </g>
   <g id="text_41">
    <g clip-path="url(#p543c9e5b56)">
     <!--   -->
     <g style="fill:#ffffff;" transform="translate(162.635784 153.943268)scale(0.08 -0.08)">
      <use xlink:href="#DejaVuSans-32"/>
     </g>
    </g>
   </g>
   <g id="text_42">
    <g clip-path="url(#p543c9e5b56)">
     <!--   -->
     <g style="fill:#ffffff;" transform="translate(239.079506 160.983612)scale(0.08 -0.08)">
      <use xlink:href="#DejaVuSans-32"/>
     </g>
    </g>
   </g>
   <g id="text_43">
    <g clip-path="url(#p543c9e5b56)">
     <!--   -->
     <g style="fill:#ffffff;" transform="translate(319.016871 158.602133)scale(0.08 -0.08)">
      <use xlink:href="#DejaVuSans-32"/>
     </g>
    </g>
   </g>
   <g id="text_44">
    <g clip-path="url(#p543c9e5b56)">
     <!--   -->
     <g style="fill:#ffffff;" transform="translate(388.625978 147.210609)scale(0.08 -0.08)">
      <use xlink:href="#DejaVuSans-32"/>
     </g>
    </g>
   </g>
   <g id="text_45">
    <g clip-path="url(#p543c9e5b56)">
     <!--   -->
     <g style="fill:#ffffff;" transform="translate(435.870791 128.778741)scale(0.08 -0.08)">
      <use xlink:href="#DejaVuSans-32"/>
     </g>
    </g>
   </g>
   <g id="text_46">
    <g clip-path="url(#p543c9e5b56)">
     <!-- Charles -->
     <defs>
      <path d="M 64.40625 67.28125 
L 64.40625 56.890625 
Q 59.421875 61.53125 53.78125 63.8125 
Q 48.140625 66.109375 41.796875 66.109375 
Q 29.296875 66.109375 22.65625 58.46875 
Q 16.015625 50.828125 16.015625 36.375 
Q 16.015625 21.96875 22.65625 14.328125 
Q 29.296875 6.6875 41.796875 6.6875 
Q 48.140625 6.6875 53.78125 8.984375 
Q 59.421875 11.28125 64.40625 15.921875 
L 64.40625 5.609375 
Q 59.234375 2.09375 53.4375 0.328125 
Q 47.65625 -1.421875 41.21875 -1.421875 
Q 24.65625 -1.421875 15.125 8.703125 
Q 5.609375 18.84375 5.609375 36.375 
Q 5.609375 53.953125 15.125 64.078125 
Q 24.65625 74.21875 41.21875 74.21875 
Q 47.75 74.21875 53.53125 72.484375 
Q 59.328125 70.75 64.40625 67.28125 
z
" id="DejaVuSans-67"/>
      <path d="M 54.890625 33.015625 
L 54.890625 0 
L 45.90625 0 
L 45.90625 32.71875 
Q 45.90625 40.484375 42.875 44.328125 
Q 39.84375 48.1875 33.796875 48.1875 
Q 26.515625 48.1875 22.3125 43.546875 
Q 18.109375 38.921875 18.109375 30.90625 
L 18.109375 0 
L 9.078125 0 
L 9.078125 75.984375 
L 18.109375 75.984375 
L 18.109375 46.1875 
Q 21.34375 51.125 25.703125 53.5625 
Q 30.078125 56 35.796875 56 
Q 45.21875 56 50.046875 50.171875 
Q 54.890625 44.34375 54.890625 33.015625 
z
" id="DejaVuSans-104"/>
      <path d="M 34.28125 27.484375 
Q 23.390625 27.484375 19.1875 25 
Q 14.984375 22.515625 14.984375 16.5 
Q 14.984375 11.71875 18.140625 8.90625 
Q 21.296875 6.109375 26.703125 6.109375 
Q 34.1875 6.109375 38.703125 11.40625 
Q 43.21875 16.703125 43.21875 25.484375 
L 43.21875 27.484375 
z
M 52.203125 31.203125 
L 52.203125 0 
L 43.21875 0 
L 43.21875 8.296875 
Q 40.140625 3.328125 35.546875 0.953125 
Q 30.953125 -1.421875 24.3125 -1.421875 
Q 15.921875 -1.421875 10.953125 3.296875 
Q 6 8.015625 6 15.921875 
Q 6 25.140625 12.171875 29.828125 
Q 18.359375 34.515625 30.609375 34.515625 
L 43.21875 34.515625 
L 43.21875 35.40625 
Q 43.21875 41.609375 39.140625 45 
Q 35.0625 48.390625 27.6875 48.390625 
Q 23 48.390625 18.546875 47.265625 
Q 14.109375 46.140625 10.015625 43.890625 
L 10.015625 52.203125 
Q 14.9375 54.109375 19.578125 55.046875 
Q 24.21875 56 28.609375 56 
Q 40.484375 56 46.34375 49.84375 
Q 52.203125 43.703125 52.203125 31.203125 
z
" id="DejaVuSans-97"/>
      <path d="M 41.109375 46.296875 
Q 39.59375 47.171875 37.8125 47.578125 
Q 36.03125 48 33.890625 48 
Q 26.265625 48 22.1875 43.046875 
Q 18.109375 38.09375 18.109375 28.8125 
L 18.109375 0 
L 9.078125 0 
L 9.078125 54.6875 
L 18.109375 54.6875 
L 18.109375 46.1875 
Q 20.953125 51.171875 25.484375 53.578125 
Q 30.03125 56 36.53125 56 
Q 37.453125 56 38.578125 55.875 
Q 39.703125 55.765625 41.0625 55.515625 
z
" id="DejaVuSans-114"/>
      <path d="M 9.421875 75.984375 
L 18.40625 75.984375 
L 18.40625 0 
L 9.421875 0 
z
" id="DejaVuSans-108"/>
      <path d="M 56.203125 29.59375 
L 56.203125 25.203125 
L 14.890625 25.203125 
Q 15.484375 15.921875 20.484375 11.0625 
Q 25.484375 6.203125 34.421875 6.203125 
Q 39.59375 6.203125 44.453125 7.46875 
Q 49.3125 8.734375 54.109375 11.28125 
L 54.109375 2.78125 
Q 49.265625 0.734375 44.1875 -0.34375 
Q 39.109375 -1.421875 33.890625 -1.421875 
Q 20.796875 -1.421875 13.15625 6.1875 
Q 5.515625 13.8125 5.515625 26.8125 
Q 5.515625 40.234375 12.765625 48.109375 
Q 20.015625 56 32.328125 56 
Q 43.359375 56 49.78125 48.890625 
Q 56.203125 41.796875 56.203125 29.59375 
z
M 47.21875 32.234375 
Q 47.125 39.59375 43.09375 43.984375 
Q 39.0625 48.390625 32.421875 48.390625 
Q 24.90625 48.390625 20.390625 44.140625 
Q 15.875 39.890625 15.1875 32.171875 
z
" id="DejaVuSans-101"/>
      <path d="M 44.28125 53.078125 
L 44.28125 44.578125 
Q 40.484375 46.53125 36.375 47.5 
Q 32.28125 48.484375 27.875 48.484375 
Q 21.1875 48.484375 17.84375 46.4375 
Q 14.5 44.390625 14.5 40.28125 
Q 14.5 37.15625 16.890625 35.375 
Q 19.28125 33.59375 26.515625 31.984375 
L 29.59375 31.296875 
Q 39.15625 29.25 43.1875 25.515625 
Q 47.21875 21.78125 47.21875 15.09375 
Q 47.21875 7.46875 41.1875 3.015625 
Q 35.15625 -1.421875 24.609375 -1.421875 
Q 20.21875 -1.421875 15.453125 -0.5625 
Q 10.6875 0.296875 5.421875 2 
L 5.421875 11.28125 
Q 10.40625 8.6875 15.234375 7.390625 
Q 20.0625 6.109375 24.8125 6.109375 
Q 31.15625 6.109375 34.5625 8.28125 
Q 37.984375 10.453125 37.984375 14.40625 
Q 37.984375 18.0625 35.515625 20.015625 
Q 33.0625 21.96875 24.703125 23.78125 
L 21.578125 24.515625 
Q 13.234375 26.265625 9.515625 29.90625 
Q 5.8125 33.546875 5.8125 39.890625 
Q 5.8125 47.609375 11.28125 51.796875 
Q 16.75 56 26.8125 56 
Q 31.78125 56 36.171875 55.265625 
Q 40.578125 54.546875 44.28125 53.078125 
z
" id="DejaVuSans-115"/>
     </defs>
     <g style="fill:#ffffff;" transform="translate(1083.09888 106.493572)scale(0.08 -0.08)">
      <use xlink:href="#DejaVuSans-67"/>
      <use x="69.824219" xlink:href="#DejaVuSans-104"/>
      <use x="133.203125" xlink:href="#DejaVuSans-97"/>
      <use x="194.482422" xlink:href="#DejaVuSans-114"/>
      <use x="235.595703" xlink:href="#DejaVuSans-108"/>
      <use x="263.378906" xlink:href="#DejaVuSans-101"/>
      <use x="324.902344" xlink:href="#DejaVuSans-115"/>
     </g>
    </g>
   </g>
   <g id="text_47">
    <g clip-path="url(#p543c9e5b56)">
     <!-- Laura -->
     <defs>
      <path d="M 9.8125 72.90625 
L 19.671875 72.90625 
L 19.671875 8.296875 
L 55.171875 8.296875 
L 55.171875 0 
L 9.8125 0 
z
" id="DejaVuSans-76"/>
      <path d="M 8.5 21.578125 
L 8.5 54.6875 
L 17.484375 54.6875 
L 17.484375 21.921875 
Q 17.484375 14.15625 20.5 10.265625 
Q 23.53125 6.390625 29.59375 6.390625 
Q 36.859375 6.390625 41.078125 11.03125 
Q 45.3125 15.671875 45.3125 23.6875 
L 45.3125 54.6875 
L 54.296875 54.6875 
L 54.296875 0 
L 45.3125 0 
L 45.3125 8.40625 
Q 42.046875 3.421875 37.71875 1 
Q 33.40625 -1.421875 27.6875 -1.421875 
Q 18.265625 -1.421875 13.375 4.4375 
Q 8.5 10.296875 8.5 21.578125 
z
M 31.109375 56 
z
" id="DejaVuSans-117"/>
     </defs>
     <g style="fill:#ffffff;" transform="translate(1070.156803 84.208396)scale(0.08 -0.08)">
      <use xlink:href="#DejaVuSans-76"/>
      <use x="55.712891" xlink:href="#DejaVuSans-97"/>
      <use x="116.992188" xlink:href="#DejaVuSans-117"/>
      <use x="180.371094" xlink:href="#DejaVuSans-114"/>
      <use x="221.484375" xlink:href="#DejaVuSans-97"/>
     </g>
    </g>
   </g>
   <g id="text_48">
    <g clip-path="url(#p543c9e5b56)">
     <!-- Arlene -->
     <defs>
      <path d="M 34.1875 63.1875 
L 20.796875 26.90625 
L 47.609375 26.90625 
z
M 28.609375 72.90625 
L 39.796875 72.90625 
L 67.578125 0 
L 57.328125 0 
L 50.6875 18.703125 
L 17.828125 18.703125 
L 11.1875 0 
L 0.78125 0 
z
" id="DejaVuSans-65"/>
      <path d="M 54.890625 33.015625 
L 54.890625 0 
L 45.90625 0 
L 45.90625 32.71875 
Q 45.90625 40.484375 42.875 44.328125 
Q 39.84375 48.1875 33.796875 48.1875 
Q 26.515625 48.1875 22.3125 43.546875 
Q 18.109375 38.921875 18.109375 30.90625 
L 18.109375 0 
L 9.078125 0 
L 9.078125 54.6875 
L 18.109375 54.6875 
L 18.109375 46.1875 
Q 21.34375 51.125 25.703125 53.5625 
Q 30.078125 56 35.796875 56 
Q 45.21875 56 50.046875 50.171875 
Q 54.890625 44.34375 54.890625 33.015625 
z
" id="DejaVuSans-110"/>
     </defs>
     <g style="fill:#ffffff;" transform="translate(1021.273229 65.776529)scale(0.08 -0.08)">
      <use xlink:href="#DejaVuSans-65"/>
      <use x="68.408203" xlink:href="#DejaVuSans-114"/>
      <use x="109.521484" xlink:href="#DejaVuSans-108"/>
      <use x="137.304688" xlink:href="#DejaVuSans-101"/>
      <use x="198.828125" xlink:href="#DejaVuSans-110"/>
      <use x="262.207031" xlink:href="#DejaVuSans-101"/>
     </g>
    </g>
   </g>
   <g id="text_49">
    <g clip-path="url(#p543c9e5b56)">
     <!-- Melanie -->
     <defs>
      <path d="M 9.8125 72.90625 
L 24.515625 72.90625 
L 43.109375 23.296875 
L 61.8125 72.90625 
L 76.515625 72.90625 
L 76.515625 0 
L 66.890625 0 
L 66.890625 64.015625 
L 48.09375 14.015625 
L 38.1875 14.015625 
L 19.390625 64.015625 
L 19.390625 0 
L 9.8125 0 
z
" id="DejaVuSans-77"/>
      <path d="M 9.421875 54.6875 
L 18.40625 54.6875 
L 18.40625 0 
L 9.421875 0 
z
M 9.421875 75.984375 
L 18.40625 75.984375 
L 18.40625 64.59375 
L 9.421875 64.59375 
z
" id="DejaVuSans-105"/>
     </defs>
     <g style="fill:#ffffff;" transform="translate(949.031003 54.385009)scale(0.08 -0.08)">
      <use xlink:href="#DejaVuSans-77"/>
      <use x="86.279297" xlink:href="#DejaVuSans-101"/>
      <use x="147.802734" xlink:href="#DejaVuSans-108"/>
      <use x="175.585938" xlink:href="#DejaVuSans-97"/>
      <use x="236.865234" xlink:href="#DejaVuSans-110"/>
      <use x="300.244141" xlink:href="#DejaVuSans-105"/>
      <use x="328.027344" xlink:href="#DejaVuSans-101"/>
     </g>
    </g>
   </g>
   <g id="text_50">
    <g clip-path="url(#p543c9e5b56)">
     <!-- Doris -->
     <defs>
      <path d="M 19.671875 64.796875 
L 19.671875 8.109375 
L 31.59375 8.109375 
Q 46.6875 8.109375 53.6875 14.9375 
Q 60.6875 21.78125 60.6875 36.53125 
Q 60.6875 51.171875 53.6875 57.984375 
Q 46.6875 64.796875 31.59375 64.796875 
z
M 9.8125 72.90625 
L 30.078125 72.90625 
Q 51.265625 72.90625 61.171875 64.09375 
Q 71.09375 55.28125 71.09375 36.53125 
Q 71.09375 17.671875 61.125 8.828125 
Q 51.171875 0 30.078125 0 
L 9.8125 0 
z
" id="DejaVuSans-68"/>
      <path d="M 30.609375 48.390625 
Q 23.390625 48.390625 19.1875 42.75 
Q 14.984375 37.109375 14.984375 27.296875 
Q 14.984375 17.484375 19.15625 11.84375 
Q 23.34375 6.203125 30.609375 6.203125 
Q 37.796875 6.203125 41.984375 11.859375 
Q 46.1875 17.53125 46.1875 27.296875 
Q 46.1875 37.015625 41.984375 42.703125 
Q 37.796875 48.390625 30.609375 48.390625 
z
M 30.609375 56 
Q 42.328125 56 49.015625 48.375 
Q 55.71875 40.765625 55.71875 27.296875 
Q 55.71875 13.875 49.015625 6.21875 
Q 42.328125 -1.421875 30.609375 -1.421875 
Q 18.84375 -1.421875 12.171875 6.21875 
Q 5.515625 13.875 5.515625 27.296875 
Q 5.515625 40.765625 12.171875 48.375 
Q 18.84375 56 30.609375 56 
z
" id="DejaVuSans-111"/>
     </defs>
     <g style="fill:#ffffff;" transform="translate(874.309259 52.003533)scale(0.08 -0.08)">
      <use xlink:href="#DejaVuSans-68"/>
      <use x="77.001953" xlink:href="#DejaVuSans-111"/>
      <use x="138.183594" xlink:href="#DejaVuSans-114"/>
      <use x="179.296875" xlink:href="#DejaVuSans-105"/>
      <use x="207.080078" xlink:href="#DejaVuSans-115"/>
     </g>
    </g>
   </g>
   <g id="text_51">
    <g clip-path="url(#p543c9e5b56)">
     <!-- Alicia -->
     <defs>
      <path d="M 48.78125 52.59375 
L 48.78125 44.1875 
Q 44.96875 46.296875 41.140625 47.34375 
Q 37.3125 48.390625 33.40625 48.390625 
Q 24.65625 48.390625 19.8125 42.84375 
Q 14.984375 37.3125 14.984375 27.296875 
Q 14.984375 17.28125 19.8125 11.734375 
Q 24.65625 6.203125 33.40625 6.203125 
Q 37.3125 6.203125 41.140625 7.25 
Q 44.96875 8.296875 48.78125 10.40625 
L 48.78125 2.09375 
Q 45.015625 0.34375 40.984375 -0.53125 
Q 36.96875 -1.421875 32.421875 -1.421875 
Q 20.0625 -1.421875 12.78125 6.34375 
Q 5.515625 14.109375 5.515625 27.296875 
Q 5.515625 40.671875 12.859375 48.328125 
Q 20.21875 56 33.015625 56 
Q 37.15625 56 41.109375 55.140625 
Q 45.0625 54.296875 48.78125 52.59375 
z
" id="DejaVuSans-99"/>
     </defs>
     <g style="fill:#ffffff;" transform="translate(797.511785 59.043881)scale(0.08 -0.08)">
      <use xlink:href="#DejaVuSans-65"/>
      <use x="68.408203" xlink:href="#DejaVuSans-108"/>
      <use x="96.191406" xlink:href="#DejaVuSans-105"/>
      <use x="123.974609" xlink:href="#DejaVuSans-99"/>
      <use x="178.955078" xlink:href="#DejaVuSans-105"/>
      <use x="206.738281" xlink:href="#DejaVuSans-97"/>
     </g>
    </g>
   </g>
   <g id="text_52">
    <g clip-path="url(#p543c9e5b56)">
     <!-- Myra -->
     <defs>
      <path d="M 32.171875 -5.078125 
Q 28.375 -14.84375 24.75 -17.8125 
Q 21.140625 -20.796875 15.09375 -20.796875 
L 7.90625 -20.796875 
L 7.90625 -13.28125 
L 13.1875 -13.28125 
Q 16.890625 -13.28125 18.9375 -11.515625 
Q 21 -9.765625 23.484375 -3.21875 
L 25.09375 0.875 
L 2.984375 54.6875 
L 12.5 54.6875 
L 29.59375 11.921875 
L 46.6875 54.6875 
L 56.203125 54.6875 
z
" id="DejaVuSans-121"/>
     </defs>
     <g style="fill:#ffffff;" transform="translate(738.585772 74.288714)scale(0.08 -0.08)">
      <use xlink:href="#DejaVuSans-77"/>
      <use x="86.279297" xlink:href="#DejaVuSans-121"/>
      <use x="145.458984" xlink:href="#DejaVuSans-114"/>
      <use x="186.572266" xlink:href="#DejaVuSans-97"/>
     </g>
    </g>
   </g>
   <g id="text_53">
    <g clip-path="url(#p543c9e5b56)">
     <!-- Edmundo -->
     <defs>
      <path d="M 9.8125 72.90625 
L 55.90625 72.90625 
L 55.90625 64.59375 
L 19.671875 64.59375 
L 19.671875 43.015625 
L 54.390625 43.015625 
L 54.390625 34.71875 
L 19.671875 34.71875 
L 19.671875 8.296875 
L 56.78125 8.296875 
L 56.78125 0 
L 9.8125 0 
z
" id="DejaVuSans-69"/>
      <path d="M 45.40625 46.390625 
L 45.40625 75.984375 
L 54.390625 75.984375 
L 54.390625 0 
L 45.40625 0 
L 45.40625 8.203125 
Q 42.578125 3.328125 38.25 0.953125 
Q 33.9375 -1.421875 27.875 -1.421875 
Q 17.96875 -1.421875 11.734375 6.484375 
Q 5.515625 14.40625 5.515625 27.296875 
Q 5.515625 40.1875 11.734375 48.09375 
Q 17.96875 56 27.875 56 
Q 33.9375 56 38.25 53.625 
Q 42.578125 51.265625 45.40625 46.390625 
z
M 14.796875 27.296875 
Q 14.796875 17.390625 18.875 11.75 
Q 22.953125 6.109375 30.078125 6.109375 
Q 37.203125 6.109375 41.296875 11.75 
Q 45.40625 17.390625 45.40625 27.296875 
Q 45.40625 37.203125 41.296875 42.84375 
Q 37.203125 48.484375 30.078125 48.484375 
Q 22.953125 48.484375 18.875 42.84375 
Q 14.796875 37.203125 14.796875 27.296875 
z
" id="DejaVuSans-100"/>
      <path d="M 52 44.1875 
Q 55.375 50.25 60.0625 53.125 
Q 64.75 56 71.09375 56 
Q 79.640625 56 84.28125 50.015625 
Q 88.921875 44.046875 88.921875 33.015625 
L 88.921875 0 
L 79.890625 0 
L 79.890625 32.71875 
Q 79.890625 40.578125 77.09375 44.375 
Q 74.3125 48.1875 68.609375 48.1875 
Q 61.625 48.1875 57.5625 43.546875 
Q 53.515625 38.921875 53.515625 30.90625 
L 53.515625 0 
L 44.484375 0 
L 44.484375 32.71875 
Q 44.484375 40.625 41.703125 44.40625 
Q 38.921875 48.1875 33.109375 48.1875 
Q 26.21875 48.1875 22.15625 43.53125 
Q 18.109375 38.875 18.109375 30.90625 
L 18.109375 0 
L 9.078125 0 
L 9.078125 54.6875 
L 18.109375 54.6875 
L 18.109375 46.1875 
Q 21.1875 51.21875 25.484375 53.609375 
Q 29.78125 56 35.6875 56 
Q 41.65625 56 45.828125 52.96875 
Q 50 49.953125 52 44.1875 
z
" id="DejaVuSans-109"/>
     </defs>
     <g style="fill:#ffffff;" transform="translate(696.787611 95.102056)scale(0.08 -0.08)">
      <use xlink:href="#DejaVuSans-69"/>
      <use x="63.183594" xlink:href="#DejaVuSans-100"/>
      <use x="126.660156" xlink:href="#DejaVuSans-109"/>
      <use x="224.072266" xlink:href="#DejaVuSans-117"/>
      <use x="287.451172" xlink:href="#DejaVuSans-110"/>
      <use x="350.830078" xlink:href="#DejaVuSans-100"/>
      <use x="414.306641" xlink:href="#DejaVuSans-111"/>
     </g>
    </g>
   </g>
   <g id="text_54">
    <g clip-path="url(#p543c9e5b56)">
     <!-- Tracy -->
     <defs>
      <path d="M -0.296875 72.90625 
L 61.375 72.90625 
L 61.375 64.59375 
L 35.5 64.59375 
L 35.5 0 
L 25.59375 0 
L 25.59375 64.59375 
L -0.296875 64.59375 
z
" id="DejaVuSans-84"/>
     </defs>
     <g style="fill:#ffffff;" transform="translate(704.710747 117.885097)scale(0.08 -0.08)">
      <use xlink:href="#DejaVuSans-84"/>
      <use x="60.865234" xlink:href="#DejaVuSans-114"/>
      <use x="101.978516" xlink:href="#DejaVuSans-97"/>
      <use x="163.257812" xlink:href="#DejaVuSans-99"/>
      <use x="218.238281" xlink:href="#DejaVuSans-121"/>
     </g>
    </g>
   </g>
   <g id="text_55">
    <g clip-path="url(#p543c9e5b56)">
     <!-- Robert -->
     <defs>
      <path d="M 44.390625 34.1875 
Q 47.5625 33.109375 50.5625 29.59375 
Q 53.5625 26.078125 56.59375 19.921875 
L 66.609375 0 
L 56 0 
L 46.6875 18.703125 
Q 43.0625 26.03125 39.671875 28.421875 
Q 36.28125 30.8125 30.421875 30.8125 
L 19.671875 30.8125 
L 19.671875 0 
L 9.8125 0 
L 9.8125 72.90625 
L 32.078125 72.90625 
Q 44.578125 72.90625 50.734375 67.671875 
Q 56.890625 62.453125 56.890625 51.90625 
Q 56.890625 45.015625 53.6875 40.46875 
Q 50.484375 35.9375 44.390625 34.1875 
z
M 19.671875 64.796875 
L 19.671875 38.921875 
L 32.078125 38.921875 
Q 39.203125 38.921875 42.84375 42.21875 
Q 46.484375 45.515625 46.484375 51.90625 
Q 46.484375 58.296875 42.84375 61.546875 
Q 39.203125 64.796875 32.078125 64.796875 
z
" id="DejaVuSans-82"/>
      <path d="M 48.6875 27.296875 
Q 48.6875 37.203125 44.609375 42.84375 
Q 40.53125 48.484375 33.40625 48.484375 
Q 26.265625 48.484375 22.1875 42.84375 
Q 18.109375 37.203125 18.109375 27.296875 
Q 18.109375 17.390625 22.1875 11.75 
Q 26.265625 6.109375 33.40625 6.109375 
Q 40.53125 6.109375 44.609375 11.75 
Q 48.6875 17.390625 48.6875 27.296875 
z
M 18.109375 46.390625 
Q 20.953125 51.265625 25.265625 53.625 
Q 29.59375 56 35.59375 56 
Q 45.5625 56 51.78125 48.09375 
Q 58.015625 40.1875 58.015625 27.296875 
Q 58.015625 14.40625 51.78125 6.484375 
Q 45.5625 -1.421875 35.59375 -1.421875 
Q 29.59375 -1.421875 25.265625 0.953125 
Q 20.953125 3.328125 18.109375 8.203125 
L 18.109375 0 
L 9.078125 0 
L 9.078125 75.984375 
L 18.109375 75.984375 
z
" id="DejaVuSans-98"/>
      <path d="M 18.3125 70.21875 
L 18.3125 54.6875 
L 36.8125 54.6875 
L 36.8125 47.703125 
L 18.3125 47.703125 
L 18.3125 18.015625 
Q 18.3125 11.328125 20.140625 9.421875 
Q 21.96875 7.515625 27.59375 7.515625 
L 36.8125 7.515625 
L 36.8125 0 
L 27.59375 0 
Q 17.1875 0 13.234375 3.875 
Q 9.28125 7.765625 9.28125 18.015625 
L 9.28125 47.703125 
L 2.6875 47.703125 
L 2.6875 54.6875 
L 9.28125 54.6875 
L 9.28125 70.21875 
z
" id="DejaVuSans-116"/>
     </defs>
     <g style="fill:#ffffff;" transform="translate(735.06267 138.698441)scale(0.08 -0.08)">
      <use xlink:href="#DejaVuSans-82"/>
      <use x="69.419922" xlink:href="#DejaVuSans-111"/>
      <use x="130.601562" xlink:href="#DejaVuSans-98"/>
      <use x="194.078125" xlink:href="#DejaVuSans-101"/>
      <use x="255.601562" xlink:href="#DejaVuSans-114"/>
      <use x="296.714844" xlink:href="#DejaVuSans-116"/>
     </g>
    </g>
   </g>
   <g id="text_56">
    <g clip-path="url(#p543c9e5b56)">
     <!-- Diane -->
     <g style="fill:#ffffff;" transform="translate(796.593695 153.943268)scale(0.08 -0.08)">
      <use xlink:href="#DejaVuSans-68"/>
      <use x="77.001953" xlink:href="#DejaVuSans-105"/>
      <use x="104.785156" xlink:href="#DejaVuSans-97"/>
      <use x="166.064453" xlink:href="#DejaVuSans-110"/>
      <use x="229.443359" xlink:href="#DejaVuSans-101"/>
     </g>
    </g>
   </g>
   <g id="text_57">
    <g clip-path="url(#p543c9e5b56)">
     <!-- John -->
     <defs>
      <path d="M 9.8125 72.90625 
L 19.671875 72.90625 
L 19.671875 5.078125 
Q 19.671875 -8.109375 14.671875 -14.0625 
Q 9.671875 -20.015625 -1.421875 -20.015625 
L -5.171875 -20.015625 
L -5.171875 -11.71875 
L -2.09375 -11.71875 
Q 4.4375 -11.71875 7.125 -8.046875 
Q 9.8125 -4.390625 9.8125 5.078125 
z
" id="DejaVuSans-74"/>
     </defs>
     <g style="fill:#ffffff;" transform="translate(875.978667 160.983612)scale(0.08 -0.08)">
      <use xlink:href="#DejaVuSans-74"/>
      <use x="29.492188" xlink:href="#DejaVuSans-111"/>
      <use x="90.673828" xlink:href="#DejaVuSans-104"/>
      <use x="154.052734" xlink:href="#DejaVuSans-110"/>
     </g>
    </g>
   </g>
   <g id="text_58">
    <g clip-path="url(#p543c9e5b56)">
     <!-- Arnold -->
     <g style="fill:#ffffff;" transform="translate(951.600407 158.602133)scale(0.08 -0.08)">
      <use xlink:href="#DejaVuSans-65"/>
      <use x="68.408203" xlink:href="#DejaVuSans-114"/>
      <use x="109.505859" xlink:href="#DejaVuSans-110"/>
      <use x="172.884766" xlink:href="#DejaVuSans-111"/>
      <use x="234.066406" xlink:href="#DejaVuSans-108"/>
      <use x="261.849609" xlink:href="#DejaVuSans-100"/>
     </g>
    </g>
   </g>
   <g id="text_59">
    <g clip-path="url(#p543c9e5b56)">
     <!-- Franklin -->
     <defs>
      <path d="M 9.8125 72.90625 
L 51.703125 72.90625 
L 51.703125 64.59375 
L 19.671875 64.59375 
L 19.671875 43.109375 
L 48.578125 43.109375 
L 48.578125 34.8125 
L 19.671875 34.8125 
L 19.671875 0 
L 9.8125 0 
z
" id="DejaVuSans-70"/>
      <path d="M 9.078125 75.984375 
L 18.109375 75.984375 
L 18.109375 31.109375 
L 44.921875 54.6875 
L 56.390625 54.6875 
L 27.390625 29.109375 
L 57.625 0 
L 45.90625 0 
L 18.109375 26.703125 
L 18.109375 0 
L 9.078125 0 
z
" id="DejaVuSans-107"/>
     </defs>
     <g style="fill:#ffffff;" transform="translate(1018.222014 147.210609)scale(0.08 -0.08)">
      <use xlink:href="#DejaVuSans-70"/>
      <use x="57.410156" xlink:href="#DejaVuSans-114"/>
      <use x="98.523438" xlink:href="#DejaVuSans-97"/>
      <use x="159.802734" xlink:href="#DejaVuSans-110"/>
      <use x="223.181641" xlink:href="#DejaVuSans-107"/>
      <use x="281.091797" xlink:href="#DejaVuSans-108"/>
      <use x="308.875" xlink:href="#DejaVuSans-105"/>
      <use x="336.658203" xlink:href="#DejaVuSans-110"/>
     </g>
    </g>
   </g>
   <g id="text_60">
    <g clip-path="url(#p543c9e5b56)">
     <!-- Thomas -->
     <g style="fill:#ffffff;" transform="translate(1065.610576 128.778741)scale(0.08 -0.08)">
      <use xlink:href="#DejaVuSans-84"/>
      <use x="61.083984" xlink:href="#DejaVuSans-104"/>
      <use x="124.462891" xlink:href="#DejaVuSans-111"/>
      <use x="185.644531" xlink:href="#DejaVuSans-109"/>
      <use x="283.056641" xlink:href="#DejaVuSans-97"/>
      <use x="344.335938" xlink:href="#DejaVuSans-115"/>
     </g>
    </g>
   </g>
   <g id="text_61">
    <!-- Entire quantity 15.56 -->
    <defs>
     <path d="M 14.796875 27.296875 
Q 14.796875 17.390625 18.875 11.75 
Q 22.953125 6.109375 30.078125 6.109375 
Q 37.203125 6.109375 41.296875 11.75 
Q 45.40625 17.390625 45.40625 27.296875 
Q 45.40625 37.203125 41.296875 42.84375 
Q 37.203125 48.484375 30.078125 48.484375 
Q 22.953125 48.484375 18.875 42.84375 
Q 14.796875 37.203125 14.796875 27.296875 
z
M 45.40625 8.203125 
Q 42.578125 3.328125 38.25 0.953125 
Q 33.9375 -1.421875 27.875 -1.421875 
Q 17.96875 -1.421875 11.734375 6.484375 
Q 5.515625 14.40625 5.515625 27.296875 
Q 5.515625 40.1875 11.734375 48.09375 
Q 17.96875 56 27.875 56 
Q 33.9375 56 38.25 53.625 
Q 42.578125 51.265625 45.40625 46.390625 
L 45.40625 54.6875 
L 54.390625 54.6875 
L 54.390625 -20.796875 
L 45.40625 -20.796875 
z
" id="DejaVuSans-113"/>
     <path d="M 12.40625 8.296875 
L 28.515625 8.296875 
L 28.515625 63.921875 
L 10.984375 60.40625 
L 10.984375 69.390625 
L 28.421875 72.90625 
L 38.28125 72.90625 
L 38.28125 8.296875 
L 54.390625 8.296875 
L 54.390625 0 
L 12.40625 0 
z
" id="DejaVuSans-49"/>
     <path d="M 10.796875 72.90625 
L 49.515625 72.90625 
L 49.515625 64.59375 
L 19.828125 64.59375 
L 19.828125 46.734375 
Q 21.96875 47.46875 24.109375 47.828125 
Q 26.265625 48.1875 28.421875 48.1875 
Q 40.625 48.1875 47.75 41.5 
Q 54.890625 34.8125 54.890625 23.390625 
Q 54.890625 11.625 47.5625 5.09375 
Q 40.234375 -1.421875 26.90625 -1.421875 
Q 22.3125 -1.421875 17.546875 -0.640625 
Q 12.796875 0.140625 7.71875 1.703125 
L 7.71875 11.625 
Q 12.109375 9.234375 16.796875 8.0625 
Q 21.484375 6.890625 26.703125 6.890625 
Q 35.15625 6.890625 40.078125 11.328125 
Q 45.015625 15.765625 45.015625 23.390625 
Q 45.015625 31 40.078125 35.4375 
Q 35.15625 39.890625 26.703125 39.890625 
Q 22.75 39.890625 18.8125 39.015625 
Q 14.890625 38.140625 10.796875 36.28125 
z
" id="DejaVuSans-53"/>
     <path d="M 10.6875 12.40625 
L 21 12.40625 
L 21 0 
L 10.6875 0 
z
" id="DejaVuSans-46"/>
     <path d="M 33.015625 40.375 
Q 26.375 40.375 22.484375 35.828125 
Q 18.609375 31.296875 18.609375 23.390625 
Q 18.609375 15.53125 22.484375 10.953125 
Q 26.375 6.390625 33.015625 6.390625 
Q 39.65625 6.390625 43.53125 10.953125 
Q 47.40625 15.53125 47.40625 23.390625 
Q 47.40625 31.296875 43.53125 35.828125 
Q 39.65625 40.375 33.015625 40.375 
z
M 52.59375 71.296875 
L 52.59375 62.3125 
Q 48.875 64.0625 45.09375 64.984375 
Q 41.3125 65.921875 37.59375 65.921875 
Q 27.828125 65.921875 22.671875 59.328125 
Q 17.53125 52.734375 16.796875 39.40625 
Q 19.671875 43.65625 24.015625 45.921875 
Q 28.375 48.1875 33.59375 48.1875 
Q 44.578125 48.1875 50.953125 41.515625 
Q 57.328125 34.859375 57.328125 23.390625 
Q 57.328125 12.15625 50.6875 5.359375 
Q 44.046875 -1.421875 33.015625 -1.421875 
Q 20.359375 -1.421875 13.671875 8.265625 
Q 6.984375 17.96875 6.984375 36.375 
Q 6.984375 53.65625 15.1875 63.9375 
Q 23.390625 74.21875 37.203125 74.21875 
Q 40.921875 74.21875 44.703125 73.484375 
Q 48.484375 72.75 52.59375 71.296875 
z
" id="DejaVuSans-54"/>
    </defs>
    <g transform="translate(825.16446 473.69299)scale(0.15 -0.15)">
     <use xlink:href="#DejaVuSans-69"/>
     <use x="63.183594" xlink:href="#DejaVuSans-110"/>
     <use x="126.5625" xlink:href="#DejaVuSans-116"/>
     <use x="165.771484" xlink:href="#DejaVuSans-105"/>
     <use x="193.554688" xlink:href="#DejaVuSans-114"/>
     <use x="234.636719" xlink:href="#DejaVuSans-101"/>
     <use x="296.160156" xlink:href="#DejaVuSans-32"/>
     <use x="327.947266" xlink:href="#DejaVuSans-113"/>
     <use x="391.423828" xlink:href="#DejaVuSans-117"/>
     <use x="454.802734" xlink:href="#DejaVuSans-97"/>
     <use x="516.082031" xlink:href="#DejaVuSans-110"/>
     <use x="579.460938" xlink:href="#DejaVuSans-116"/>
     <use x="618.669922" xlink:href="#DejaVuSans-105"/>
     <use x="646.453125" xlink:href="#DejaVuSans-116"/>
     <use x="685.662109" xlink:href="#DejaVuSans-121"/>
     <use x="744.841797" xlink:href="#DejaVuSans-32"/>
     <use x="776.628906" xlink:href="#DejaVuSans-49"/>
     <use x="840.251953" xlink:href="#DejaVuSans-53"/>
     <use x="903.875" xlink:href="#DejaVuSans-46"/>
     <use x="935.662109" xlink:href="#DejaVuSans-53"/>
     <use x="999.285156" xlink:href="#DejaVuSans-54"/>
    </g>
   </g>
  </g>
 </g>
 <defs>
  <clipPath id="p543c9e5b56">
   <rect height="573.84" width="1152" x="0" y="0"/>
  </clipPath>
 </defs>
</svg>
